<svg xmlns="http://www.w3.org/2000/svg" xmlns:xlink="http://www.w3.org/1999/xlink" width="1360" height="440" viewBox="0 0 1020 330"><clipPath id="a"><path transform="matrix(1 0 0 -1 0 330)" d="M0 0h1020v330H0z"/></clipPath><g clip-path="url(#a)"><path d="M0 0h1020v330H0z" fill="#fff"/></g><path d="M0 0h1019.5v329.75H0z" fill="#fff"/><path d="M3.6 31.116h332.64v126.02H3.6z" fill="#fff"/><path stroke-width="1.524" stroke-miterlimit="8" fill="none" stroke="#44546a" d="M3.6 31.116h332.64v126.02H3.6z"/><symbol id="b"><path d="M.343.011.34.084A.368.368 0 0 0 .308.05.175.175 0 0 0 .183 0a.162.162 0 0 0-.136.067.245.245 0 0 0-.035.08.407.407 0 0 0 .007.221C.032.402.05.43.073.451A.21.21 0 0 0 .153.5a.312.312 0 0 0 .174.007v.194h.119v-.69H.343M.125.255c0-.027.002-.05.005-.07A.157.157 0 0 1 .147.138.073.073 0 0 1 .174.11.079.079 0 0 1 .211.102c.02 0 .04.008.058.024a.421.421 0 0 1 .058.067V.41A.252.252 0 0 1 .25.422.112.112 0 0 1 .159.377.159.159 0 0 1 .134.325a.252.252 0 0 1-.009-.07z"/></symbol><symbol id="c"><path d="M.45.297A.663.663 0 0 0 .447.23H.121c0-.022.003-.041.01-.058A.12.12 0 0 1 .159.13.128.128 0 0 1 .203.104.177.177 0 0 1 .26.095.596.596 0 0 1 .423.12V.024A.524.524 0 0 0 .336.007.569.569 0 0 0 .242 0a.3.3 0 0 0-.101.016.203.203 0 0 0-.077.047.21.21 0 0 0-.047.079A.318.318 0 0 0 0 .249c0 .04.006.077.017.11a.25.25 0 0 0 .046.085c.02.024.045.042.074.055.029.013.06.02.096.02A.244.244 0 0 0 .327.5.185.185 0 0 0 .436.386.268.268 0 0 0 .45.297M.33.314c0 .02-.003.037-.008.051A.099.099 0 0 1 .3.401.082.082 0 0 1 .27.422.104.104 0 0 1 .231.43.097.097 0 0 1 .157.4.137.137 0 0 1 .123.314h.206z"/></symbol><symbol id="d"><path d="M.513.589a.365.365 0 0 1-.111.016.126.126 0 0 1-.04-.006A.078.078 0 0 1 .312.55.124.124 0 0 1 .303.505v-.08h.195V.332H.303V0h-.12v.332H.04v.093h.144V.5c0 .035.005.065.015.09A.16.16 0 0 0 .31.688a.405.405 0 0 0 .15.007.56.56 0 0 0 .053-.01V.59M0 .496z"/></symbol><use xlink:href="#b" transform="matrix(14 0 0 -14 11.32 47.917)" fill="#2e75b6"/><use xlink:href="#c" transform="matrix(14 0 0 -14 19.248 47.917)" fill="#2e75b6"/><use xlink:href="#d" transform="matrix(14 0 0 -14 26.3 47.76)" fill="#2e75b6"/><symbol id="e"><path d="M.513.61a.569.569 0 0 1-.115.015C.32.625.283.585.283.505V.419h.215v-.07H.283V0H.197v.348H.039v.07h.158V.5c0 .13.068.196.204.196A.604.604 0 0 0 .513.684V.611M0 .49z"/></symbol><symbol id="f"><path d="M.161.42H.016v.07h.231V.07h.146V0H0v.07h.161v.35m.03.276C.2.696.209.694.217.69A.063.063 0 0 0 .252.654a.064.064 0 0 0 0-.052.063.063 0 0 0-.014-.02.064.064 0 0 0-.02-.015A.07.07 0 0 0 .19.562a.07.07 0 0 0-.026.005.07.07 0 0 0-.022.015.075.075 0 0 0-.014.021.069.069 0 0 0 .014.073C.15.682.156.687.165.69A.065.065 0 0 0 .19.696z"/></symbol><symbol id="g"><path d="M.419.26A.327.327 0 0 0 .402.15.207.207 0 0 0 .279.017.27.27 0 0 0 .179 0 .494.494 0 0 0 0 .035v.66h.085v-.19L.081.416c.024.033.05.056.078.07.028.013.058.02.09.02A.15.15 0 0 0 .323.487a.152.152 0 0 0 .053-.05A.232.232 0 0 0 .408.36a.433.433 0 0 0 .01-.1M.333.256c0 .026-.002.05-.006.07A.18.18 0 0 1 .31.383a.096.096 0 0 1-.032.035.078.078 0 0 1-.045.014.126.126 0 0 1-.067-.022.498.498 0 0 1-.08-.08v-.24a.243.243 0 0 1 .1-.021c.02 0 .038.004.056.01a.114.114 0 0 1 .047.03.153.153 0 0 1 .032.059.282.282 0 0 1 .012.089z"/></symbol><symbol id="h"><path d="M.225 0C.075.139 0 .293 0 .46a.599.599 0 0 0 .05.237c.018.04.042.079.07.118.03.04.065.078.107.117l.05-.05a.572.572 0 0 1-.19-.415C.087.392.103.32.135.25A.673.673 0 0 1 .276.052L.226 0z"/></symbol><symbol id="i"><path d="M0 .49h.076L.079.411a.339.339 0 0 0 .08.07A.193.193 0 0 0 .24.5C.292.498.33.483.356.453.381.424.394.38.394.32V0H.309v.313C.31.351.302.38.288.398.273.417.252.426.224.426A.1.1 0 0 1 .162.405.252.252 0 0 1 .127.374.773.773 0 0 1 .085.325V0H0v.49z"/></symbol><symbol id="j"><path d="M.051.932C.201.793.276.64.276.468A.587.587 0 0 0 .16.123.808.808 0 0 0 .05 0L0 .05C.063.113.11.18.142.247.173.315.19.387.19.462A.573.573 0 0 1 0 .88l.051.052z"/></symbol><symbol id="k"><path d="M.075.508C.085.508.095.506.104.5A.076.076 0 0 0 .15.433c0-.01-.002-.02-.006-.03a.077.077 0 0 0-.04-.04.074.074 0 0 0-.098.04.074.074 0 0 0 0 .058.076.076 0 0 0 .069.047m0-.358A.076.076 0 0 0 .15.075c0-.01-.002-.02-.006-.03a.077.077 0 0 0-.04-.04.074.074 0 0 0-.098.04.074.074 0 0 0 0 .059.076.076 0 0 0 .069.046z"/></symbol><use xlink:href="#e" transform="matrix(14 0 0 -14 41.8 47.76)"/><use xlink:href="#f" transform="matrix(14 0 0 -14 50.726 47.76)"/><use xlink:href="#g" transform="matrix(14 0 0 -14 58.395 47.842)"/><use xlink:href="#h" transform="matrix(14 0 0 -14 67.102 50.631)"/><use xlink:href="#i" transform="matrix(14 0 0 -14 73.895 47.76)"/><use xlink:href="#j" transform="matrix(14 0 0 -14 82.33 50.631)"/><use xlink:href="#k" transform="matrix(14 0 0 -14 91.105 47.883)"/><symbol id="l"><path d="M.29.632A.078.078 0 0 0 .266.577.081.081 0 0 0 .242.56a.083.083 0 0 0-.062 0 .088.088 0 0 0-.025.017.08.08 0 0 0 0 .11.078.078 0 0 0 .087.017A.076.076 0 0 0 .29.632M.157.403h-.14v.093H.28V.093h.143V0H0v.093h.157v.31z"/></symbol><use xlink:href="#l" transform="matrix(14 0 0 -14 27.291 64.8)" fill="#2e75b6"/><use xlink:href="#d" transform="matrix(14 0 0 -14 34.05 64.8)" fill="#2e75b6"/><symbol id="m"><path d="M0 0z"/></symbol><symbol id="n"><path d="M.42.17H0v.072h.42V.17m0-.17H0v.072h.42V0z"/></symbol><use xlink:href="#i" transform="matrix(14 0 0 -14 50.644 64.8)"/><use xlink:href="#m" transform="matrix(14 0 0 -14 57.3 64.8)"/><use xlink:href="#n" transform="matrix(14 0 0 -14 65.96 62.763)"/><use xlink:href="#n" transform="matrix(14 0 0 -14 73.71 62.763)"/><use xlink:href="#m" transform="matrix(14 0 0 -14 80.552 64.8)"/><symbol id="o"><path d="M.464.328A.57.57 0 0 0 .449.194.312.312 0 0 0 .405.09.211.211 0 0 0 .33.023.217.217 0 0 0 .227 0a.223.223 0 0 0-.093.019.187.187 0 0 0-.072.06.293.293 0 0 0-.046.102A.59.59 0 0 0 0 .328.57.57 0 0 0 .015.46a.32.32 0 0 0 .044.104.205.205 0 0 0 .178.09A.218.218 0 0 0 .33.637a.182.182 0 0 0 .072-.06.293.293 0 0 0 .046-.101.59.59 0 0 0 .016-.147M.378.325c0 .01 0 .022-.002.032A.931.931 0 0 1 .374.39L.104.189A.251.251 0 0 1 .123.142.127.127 0 0 1 .186.081.123.123 0 0 1 .232.073c.022 0 .042.005.06.016.018.01.034.027.046.048a.26.26 0 0 1 .03.078.52.52 0 0 1 .01.11M.086.33V.3c0-.01 0-.02.002-.03l.27.2a.228.228 0 0 1-.019.045.14.14 0 0 1-.027.035.113.113 0 0 1-.08.032.117.117 0 0 1-.107-.064.26.26 0 0 1-.029-.08.514.514 0 0 1-.01-.108z"/></symbol><use xlink:href="#o" transform="matrix(14 0 0 -14 88.902 64.923)" fill="#bf9000"/><use xlink:href="#k" transform="matrix(14 0 0 -14 98.853 64.923)"/><symbol id="p"><path d="M.3.303C.3.322.298.338.295.351a.085.085 0 0 1-.011.032.048.048 0 0 1-.02.018.06.06 0 0 1-.027.006.09.09 0 0 1-.054-.022.311.311 0 0 1-.062-.071V0H0v.496h.108L.112.424a.175.175 0 0 0 .154.083.158.158 0 0 0 .067-.013A.122.122 0 0 0 .38.456a.164.164 0 0 0 .03-.064.32.32 0 0 0 .008-.089h-.12z"/></symbol><symbol id="q"><path d="M.448.016A.734.734 0 0 0 .321 0a.308.308 0 0 0-.084.01.128.128 0 0 0-.093.084.25.25 0 0 0-.01.078v.243H0v.092h.133v.127l.122.032V.507h.193V.415H.255V.18c0-.028.007-.05.02-.064C.288.102.31.095.34.095a.544.544 0 0 1 .108.016V.016z"/></symbol><symbol id="r"><path d="M.12.507V.184C.12.157.123.137.133.123.144.109.16.103.18.103S.22.11.237.125a.435.435 0 0 1 .059.067v.314h.119V.011H.312L.309.084A.414.414 0 0 0 .277.05.164.164 0 0 0 .201.007.176.176 0 0 0 .152 0a.17.17 0 0 0-.067.012.13.13 0 0 0-.047.036.157.157 0 0 0-.029.055A.26.26 0 0 0 0 .174v.333h.12z"/></symbol><symbol id="s"><path d="M.296 0v.323c0 .055-.02.082-.06.082A.087.087 0 0 1 .176.38.43.43 0 0 1 .12.314V0H0v.496h.103L.106.423c.01.013.02.024.031.035a.183.183 0 0 0 .126.049A.161.161 0 0 0 .33.494.125.125 0 0 0 .377.46.146.146 0 0 0 .405.404a.242.242 0 0 0 .01-.071V0h-.12z"/></symbol><use xlink:href="#p" transform="matrix(14 0 0 -14 43.03 81.6)" fill="#2e75b6"/><use xlink:href="#c" transform="matrix(14 0 0 -14 50.248 81.757)" fill="#2e75b6"/><use xlink:href="#q" transform="matrix(14 0 0 -14 57.704 81.757)" fill="#2e75b6"/><use xlink:href="#r" transform="matrix(14 0 0 -14 65.988 81.757)" fill="#2e75b6"/><use xlink:href="#p" transform="matrix(14 0 0 -14 74.032 81.6)" fill="#2e75b6"/><use xlink:href="#s" transform="matrix(14 0 0 -14 81.502 81.6)" fill="#2e75b6"/><use xlink:href="#o" transform="matrix(14 0 0 -14 96.652 81.723)" fill="#bf9000"/><use xlink:href="#l" transform="matrix(14 0 0 -14 27.291 98.64)" fill="#2e75b6"/><use xlink:href="#d" transform="matrix(14 0 0 -14 34.05 98.64)" fill="#2e75b6"/><use xlink:href="#i" transform="matrix(14 0 0 -14 50.644 98.64)"/><use xlink:href="#m" transform="matrix(14 0 0 -14 57.3 98.64)"/><use xlink:href="#n" transform="matrix(14 0 0 -14 65.96 96.603)"/><use xlink:href="#n" transform="matrix(14 0 0 -14 73.71 96.603)"/><use xlink:href="#m" transform="matrix(14 0 0 -14 80.552 98.64)"/><symbol id="t"><path d="M.42 0h-.4v.08h.164v.465L.031.462 0 .534l.203.107h.075V.08h.143V0z"/></symbol><use xlink:href="#t" transform="matrix(14 0 0 -14 89.223 98.64)" fill="#bf9000"/><use xlink:href="#k" transform="matrix(14 0 0 -14 98.853 98.763)"/><use xlink:href="#p" transform="matrix(14 0 0 -14 43.03 114.72)" fill="#2e75b6"/><use xlink:href="#c" transform="matrix(14 0 0 -14 50.248 114.877)" fill="#2e75b6"/><use xlink:href="#q" transform="matrix(14 0 0 -14 57.704 114.877)" fill="#2e75b6"/><use xlink:href="#r" transform="matrix(14 0 0 -14 65.988 114.877)" fill="#2e75b6"/><use xlink:href="#p" transform="matrix(14 0 0 -14 74.032 114.72)" fill="#2e75b6"/><use xlink:href="#s" transform="matrix(14 0 0 -14 81.502 114.72)" fill="#2e75b6"/><use xlink:href="#t" transform="matrix(14 0 0 -14 96.973 114.72)" fill="#bf9000"/><use xlink:href="#p" transform="matrix(14 0 0 -14 27.53 131.76)" fill="#2e75b6"/><use xlink:href="#c" transform="matrix(14 0 0 -14 34.748 131.917)" fill="#2e75b6"/><use xlink:href="#q" transform="matrix(14 0 0 -14 42.204 131.917)" fill="#2e75b6"/><use xlink:href="#r" transform="matrix(14 0 0 -14 50.488 131.917)" fill="#2e75b6"/><use xlink:href="#p" transform="matrix(14 0 0 -14 58.532 131.76)" fill="#2e75b6"/><use xlink:href="#s" transform="matrix(14 0 0 -14 66.002 131.76)" fill="#2e75b6"/><use xlink:href="#e" transform="matrix(14 0 0 -14 80.55 131.76)"/><use xlink:href="#f" transform="matrix(14 0 0 -14 89.476 131.76)"/><use xlink:href="#g" transform="matrix(14 0 0 -14 97.145 131.842)"/><use xlink:href="#h" transform="matrix(14 0 0 -14 105.852 134.631)"/><use xlink:href="#i" transform="matrix(14 0 0 -14 112.645 131.76)"/><use xlink:href="#m" transform="matrix(14 0 0 -14 119.302 131.76)"/><symbol id="u"><path d="M.292 0H0v.08h.292V0z"/></symbol><use xlink:href="#u" transform="matrix(14 0 0 -14 128.855 128.595)"/><use xlink:href="#t" transform="matrix(14 0 0 -14 143.473 131.76)" fill="#bf9000"/><symbol id="v"><path d="M.468.2H.276V0H.192v.2H0v.073h.192v.198h.084V.273h.192V.2z"/></symbol><use xlink:href="#j" transform="matrix(14 0 0 -14 152.077 134.631)"/><use xlink:href="#m" transform="matrix(14 0 0 -14 158.05 131.76)"/><use xlink:href="#v" transform="matrix(14 0 0 -14 166.375 131.343)"/><use xlink:href="#m" transform="matrix(14 0 0 -14 173.551 131.76)"/><use xlink:href="#e" transform="matrix(14 0 0 -14 181.302 131.76)"/><use xlink:href="#f" transform="matrix(14 0 0 -14 190.228 131.76)"/><use xlink:href="#g" transform="matrix(14 0 0 -14 197.896 131.842)"/><use xlink:href="#h" transform="matrix(14 0 0 -14 206.604 134.631)"/><use xlink:href="#i" transform="matrix(14 0 0 -14 213.397 131.76)"/><use xlink:href="#m" transform="matrix(14 0 0 -14 220.054 131.76)"/><use xlink:href="#u" transform="matrix(14 0 0 -14 229.605 128.595)"/><symbol id="w"><path d="M.42 0H0v.076L.165.24c.027.027.049.05.066.07.017.02.03.037.04.053a.166.166 0 0 1 .023.092C.294.471.292.485.288.5a.106.106 0 0 1-.02.037.09.09 0 0 1-.034.025A.152.152 0 0 1 .11.553.253.253 0 0 1 .05.508L.001.563a.25.25 0 0 0 .193.084.223.223 0 0 0 .077-.013.16.16 0 0 0 .1-.095.227.227 0 0 0-.025-.208.47.47 0 0 0-.05-.064 1.418 1.418 0 0 0-.07-.073L.11.08h.31V0z"/></symbol><use xlink:href="#w" transform="matrix(14 0 0 -14 244.305 131.76)" fill="#bf9000"/><use xlink:href="#j" transform="matrix(14 0 0 -14 252.827 134.631)"/><path d="M3.6 3.756h332.64v27.36H3.6z" fill="#44546a"/><path stroke-width="1.524" stroke-miterlimit="8" fill="none" stroke="#44546a" d="M3.6 3.756h332.64v27.36H3.6z"/><symbol id="x"><path d="M0 0v.716h.145V.434h.283v.282h.144V0H.428v.313H.145V0H0z"/></symbol><symbol id="y"><path d="M.344.012v.077A.207.207 0 0 0 .078.023a.135.135 0 0 0-.06.064A.288.288 0 0 0 0 .202V.53h.137V.292C.137.219.14.174.145.158a.076.076 0 0 1 .027-.04.086.086 0 0 1 .051-.014c.024 0 .045.007.063.02A.1.1 0 0 1 .324.17c.007.02.01.066.01.14v.22h.138V.01H.344z"/></symbol><symbol id="z"><path d="M0 .519h.126V.448c.046.055.1.082.162.082A.174.174 0 0 0 .375.51a.158.158 0 0 0 .06-.062.24.24 0 0 0 .073.062.18.18 0 0 0 .085.02C.63.53.663.522.689.507A.14.14 0 0 0 .75.439.295.295 0 0 0 .763.332V0H.625v.296c0 .052-.004.085-.014.1C.6.416.58.426.553.426A.094.094 0 0 1 .499.407.098.098 0 0 1 .462.356.368.368 0 0 1 .45.249V0H.313v.284c0 .05-.002.083-.007.098a.062.062 0 0 1-.023.033.07.07 0 0 1-.041.01A.095.095 0 0 1 .148.36a.375.375 0 0 1-.01-.107V0H0v.519z"/></symbol><symbol id="A"><path d="M.139.372.014.395c.014.05.038.087.072.11A.264.264 0 0 0 .24.543.325.325 0 0 0 .375.52.133.133 0 0 0 .438.465.278.278 0 0 0 .457.342L.456.182c0-.045.002-.08.006-.1a.304.304 0 0 1 .025-.07H.35a.505.505 0 0 0-.018.056.247.247 0 0 0-.075-.05A.215.215 0 0 0 .172 0a.178.178 0 0 0-.126.043.145.145 0 0 0-.046.11c0 .03.007.056.021.078.014.024.034.041.059.053a.456.456 0 0 0 .109.032.748.748 0 0 1 .133.034v.014C.322.39.316.409.302.42.29.43.266.437.23.437A.097.097 0 0 1 .172.422a.099.099 0 0 1-.033-.05M.322.261A.858.858 0 0 0 .24.24.252.252 0 0 1 .164.216.057.057 0 0 1 .137.167c0-.019.007-.035.022-.05a.075.075 0 0 1 .054-.02c.025 0 .049.008.071.024a.086.086 0 0 1 .033.046.27.27 0 0 1 .005.066v.028z"/></symbol><symbol id="B"><path d="M.473 0H.335v.265a.406.406 0 0 1-.008.108.076.076 0 0 1-.077.052.11.11 0 0 1-.063-.02.1.1 0 0 1-.04-.051.458.458 0 0 1-.01-.12V0H0v.519h.127V.442A.208.208 0 0 0 .298.53C.328.53.356.525.381.514a.135.135 0 0 0 .084-.1.416.416 0 0 0 .008-.092V0z"/></symbol><use xlink:href="#x" transform="matrix(14 0 0 -14 77.508 23.04)" fill="#fff"/><use xlink:href="#y" transform="matrix(14 0 0 -14 87.571 23.204)" fill="#fff"/><use xlink:href="#z" transform="matrix(14 0 0 -14 95.97 23.04)" fill="#fff"/><use xlink:href="#A" transform="matrix(14 0 0 -14 108.112 23.204)" fill="#fff"/><use xlink:href="#B" transform="matrix(14 0 0 -14 116.349 23.04)" fill="#fff"/><symbol id="C"><path d="M0 0v.716h.53V.595H.146V.436h.359v-.12h-.36V.12h.4V0H0z"/></symbol><symbol id="D"><path d="M.209 0 0 .519h.144L.242.254.27.166.284.21.3.254l.098.265H.54L.333 0H.209z"/></symbol><symbol id="E"><path d="M0 0v.716h.137V0H0z"/></symbol><use xlink:href="#C" transform="matrix(14 0 0 -14 124.876 23.04)" fill="#fff"/><use xlink:href="#D" transform="matrix(14 0 0 -14 133.307 23.04)" fill="#fff"/><use xlink:href="#A" transform="matrix(14 0 0 -14 141.481 23.204)" fill="#fff"/><use xlink:href="#E" transform="matrix(14 0 0 -14 149.738 23.04)" fill="#fff"/><symbol id="F"><path d="M0 .381V.52h.137V.38H0M0 0v.137h.137V0H0z"/></symbol><use xlink:href="#F" transform="matrix(14 0 0 -14 153.982 23.04)" fill="#fff"/><symbol id="G"><path d="M.481.127V0H0a.33.33 0 0 0 .047.137C.073.18.124.237.2.309a.97.97 0 0 1 .114.117.151.151 0 0 1 .028.084c0 .03-.008.054-.025.07A.09.09 0 0 1 .25.605.091.091 0 0 1 .182.579C.165.562.155.533.152.493L.017.507c.008.075.034.13.077.162.043.033.096.05.16.05C.326.719.38.699.42.662A.187.187 0 0 0 .481.52.246.246 0 0 0 .463.427.37.37 0 0 0 .41.336a.879.879 0 0 0-.09-.091 1.565 1.565 0 0 1-.083-.08.245.245 0 0 1-.028-.038h.273z"/></symbol><use xlink:href="#G" transform="matrix(14 0 0 -14 161.456 23.04)" fill="#fff"/><symbol id="H"><path d="M0 .366C0 .482.03.574.092.64c.061.067.146.1.254.1a.329.329 0 0 0 .256-.1.385.385 0 0 0 .092-.27A.381.381 0 0 0 .602.1.316.316 0 0 0 .358 0a.399.399 0 0 0-.195.042.302.302 0 0 0-.12.125A.422.422 0 0 0 0 .366M.149.37c0-.084.02-.146.058-.186a.187.187 0 0 1 .14-.061c.056 0 .103.02.14.06.039.04.058.103.058.188 0 .08-.018.141-.053.183a.18.18 0 0 1-.144.062.181.181 0 0 1-.146-.063C.167.512.149.45.149.37M.23.31v.12h.232V.31H.231z"/></symbol><use xlink:href="#H" transform="matrix(9 0 0 -9 169.235 19.07)" fill="#fff"/><symbol id="I"><path d="M.247 0H.153a.95.95 0 0 0-.114.234.74.74 0 0 0 .01.502C.075.81.111.878.154.939h.094A1.496 1.496 0 0 1 .156.687a.937.937 0 0 1-.01-.384A1.091 1.091 0 0 1 .247 0z"/></symbol><use xlink:href="#I" transform="matrix(9 0 0 -9 176.578 20.854)" fill="#fff"/><symbol id="J"><path d="M.108.519h.133L.228.45A.361.361 0 0 0 .32.512a.23.23 0 0 0 .092.019.136.136 0 0 0 .1-.037A.13.13 0 0 0 .55.397.615.615 0 0 0 .533.293L.473 0H.331l.062.294c.009.044.013.07.013.079a.055.055 0 0 1-.016.042.06.06 0 0 1-.044.016A.124.124 0 0 1 .28.405a.18.18 0 0 1-.06-.069.578.578 0 0 1-.034-.123L.14 0H0l.108.519z"/></symbol><use xlink:href="#J" transform="matrix(9 0 0 -9 179.61 18.96)" fill="#fff"/><symbol id="K"><path d="M.001 0A.986.986 0 0 1 .11.355a.9.9 0 0 1-.018.332A1.46 1.46 0 0 1 0 .938h.093A.89.89 0 0 0 .208.716.72.72 0 0 0 .216.258.92.92 0 0 0 .096 0H0z"/></symbol><use xlink:href="#K" transform="matrix(9 0 0 -9 185.277 20.854)" fill="#fff"/><symbol id="L"><path d="M.137 0H0v.519h.127V.445a.224.224 0 0 0 .059.069.11.11 0 0 0 .06.016.174.174 0 0 0 .09-.026L.293.384A.12.12 0 0 1 .23.408.075.075 0 0 1 .18.391C.167.381.156.361.148.334A.832.832 0 0 1 .138.16V0z"/></symbol><symbol id="M"><path d="M.34.177.477.154A.225.225 0 0 0 .394.039.245.245 0 0 0 .25 0c-.09 0-.156.03-.2.088A.297.297 0 0 0 0 .268c0 .085.022.152.067.2a.222.222 0 0 0 .17.074A.23.23 0 0 0 .42.465C.465.415.486.337.484.231H.141A.14.14 0 0 1 .174.136.104.104 0 0 1 .253.103c.021 0 .04.005.054.017.015.012.026.03.033.057m.008.138c0 .04-.011.07-.03.09a.094.094 0 0 1-.072.032.095.095 0 0 1-.074-.033.127.127 0 0 1-.029-.089h.205z"/></symbol><symbol id="N"><path d="M.482.377.347.353a.098.098 0 0 1-.031.06.093.093 0 0 1-.063.021.103.103 0 0 1-.082-.036C.151.375.141.336.141.28c0-.061.01-.105.03-.13A.103.103 0 0 1 .256.112c.026 0 .048.007.064.022.017.015.029.04.035.076L.49.188a.24.24 0 0 0-.08-.14A.25.25 0 0 0 .249 0a.238.238 0 0 0-.182.072A.279.279 0 0 0 0 .27c0 .085.023.152.068.2A.24.24 0 0 0 .25.541a.248.248 0 0 0 .15-.041.224.224 0 0 0 .081-.124z"/></symbol><symbol id="O"><path d="m0 .16.138.02A.102.102 0 0 1 .173.12.121.121 0 0 1 .25.1C.284.1.31.105.329.118.34.128.347.14.347.155c0 .01-.004.02-.01.026A.11.11 0 0 1 .29.2a.74.74 0 0 0-.21.067.134.134 0 0 0-.062.117c0 .045.018.082.053.113.036.03.09.046.165.046A.288.288 0 0 0 .396.507a.177.177 0 0 0 .07-.102L.338.38a.08.08 0 0 1-.031.046.114.114 0 0 1-.066.016.15.15 0 0 1-.078-.015A.033.033 0 0 1 .146.4C.146.39.151.382.16.375A.514.514 0 0 1 .288.337.382.382 0 0 0 .441.276.127.127 0 0 0 .484.174.157.157 0 0 0 .424.05C.386.017.327 0 .25 0A.29.29 0 0 0 .08.043.198.198 0 0 0 0 .16z"/></symbol><symbol id="P"><path d="M0 .589v.127h.137V.589H0M0 0v.519h.137V0H0z"/></symbol><symbol id="Q"><path d="M0 .278c0 .046.011.09.034.133a.232.232 0 0 0 .095.097.285.285 0 0 0 .138.034.258.258 0 0 0 .268-.27A.268.268 0 0 0 .46.077.256.256 0 0 0 .269 0a.303.303 0 0 0-.137.032.222.222 0 0 0-.098.094A.316.316 0 0 0 0 .278M.14.271C.14.22.154.181.178.153a.116.116 0 0 1 .09-.041c.036 0 .066.013.09.04.025.028.037.068.037.12 0 .05-.012.09-.037.117a.115.115 0 0 1-.09.041.116.116 0 0 1-.09-.04C.153.361.141.321.141.27z"/></symbol><use xlink:href="#L" transform="matrix(14 0 0 -14 192.905 23.04)" fill="#fff"/><use xlink:href="#M" transform="matrix(14 0 0 -14 197.927 23.204)" fill="#fff"/><use xlink:href="#N" transform="matrix(14 0 0 -14 205.819 23.204)" fill="#fff"/><use xlink:href="#y" transform="matrix(14 0 0 -14 213.956 23.204)" fill="#fff"/><use xlink:href="#L" transform="matrix(14 0 0 -14 222.412 23.04)" fill="#fff"/><use xlink:href="#O" transform="matrix(14 0 0 -14 227.318 23.204)" fill="#fff"/><use xlink:href="#P" transform="matrix(14 0 0 -14 235.749 23.04)" fill="#fff"/><use xlink:href="#Q" transform="matrix(14 0 0 -14 239.181 23.204)" fill="#fff"/><use xlink:href="#B" transform="matrix(14 0 0 -14 248.108 23.04)" fill="#fff"/><use xlink:href="#O" transform="matrix(14 0 0 -14 255.942 23.204)" fill="#fff"/><path d="M343.44 31.116h332.64v126.02H343.44z" fill="#fff"/><path stroke-width="1.524" stroke-miterlimit="8" fill="none" stroke="#44546a" d="M343.44 31.116h332.64v126.02H343.44z"/><use xlink:href="#b" transform="matrix(14 0 0 -14 351.16 47.917)" fill="#2e75b6"/><use xlink:href="#c" transform="matrix(14 0 0 -14 359.088 47.917)" fill="#2e75b6"/><use xlink:href="#d" transform="matrix(14 0 0 -14 366.14 47.76)" fill="#2e75b6"/><use xlink:href="#e" transform="matrix(14 0 0 -14 381.64 47.76)"/><use xlink:href="#f" transform="matrix(14 0 0 -14 390.566 47.76)"/><use xlink:href="#g" transform="matrix(14 0 0 -14 398.235 47.842)"/><use xlink:href="#h" transform="matrix(14 0 0 -14 406.942 50.631)"/><use xlink:href="#i" transform="matrix(14 0 0 -14 413.735 47.76)"/><use xlink:href="#j" transform="matrix(14 0 0 -14 422.17 50.631)"/><use xlink:href="#k" transform="matrix(14 0 0 -14 430.945 47.883)"/><symbol id="R"><path d="M.328.009.326.075A.265.265 0 0 0 .245.018.217.217 0 0 0 .158 0a.212.212 0 0 0-.072.01.139.139 0 0 0-.049.03.12.12 0 0 0-.028.044A.168.168 0 0 0 0 .14c0 .049.018.087.055.115a.266.266 0 0 0 .162.042H.32V.34A.09.09 0 0 1 .29.41C.272.426.244.435.206.435a.366.366 0 0 1-.082-.01A.579.579 0 0 1 .041.4v.077a.467.467 0 0 0 .124.028.397.397 0 0 0 .128-.007.16.16 0 0 0 .06-.03.13.13 0 0 0 .038-.05.177.177 0 0 0 .013-.071V.009H.328m-.01.223H.212A.207.207 0 0 1 .156.226.104.104 0 0 1 .12.208.074.074 0 0 1 .097.179.093.093 0 0 1 .094.115.063.063 0 0 1 .108.092.07.07 0 0 1 .134.077.109.109 0 0 1 .172.07c.02 0 .042.006.067.017C.264.1.29.12.319.145v.087z"/></symbol><symbol id="S"><path d="M0 .067c.017 0 .033 0 .048.004.016.004.03.01.041.016a.085.085 0 0 1 .03.026c.006.01.01.023.01.036a.066.066 0 0 1-.007.033.147.147 0 0 1-.016.024.193.193 0 0 0-.016.023.067.067 0 0 0-.007.032.065.065 0 0 0 .016.042.065.065 0 0 0 .02.015.076.076 0 0 0 .063-.001.07.07 0 0 0 .027-.022A.105.105 0 0 0 .23.26.204.204 0 0 0 .177.063.212.212 0 0 0 .102.017.282.282 0 0 0 0 0v.067z"/></symbol><use xlink:href="#R" transform="matrix(14 0 0 -14 367.05 64.923)"/><use xlink:href="#S" transform="matrix(14 0 0 -14 375.517 67.138)"/><use xlink:href="#m" transform="matrix(14 0 0 -14 381.64 64.8)"/><use xlink:href="#g" transform="matrix(14 0 0 -14 390.485 64.882)"/><use xlink:href="#m" transform="matrix(14 0 0 -14 397.142 64.8)"/><use xlink:href="#n" transform="matrix(14 0 0 -14 405.801 62.763)"/><use xlink:href="#m" transform="matrix(14 0 0 -14 412.642 64.8)"/><use xlink:href="#o" transform="matrix(14 0 0 -14 420.992 64.923)" fill="#bf9000"/><use xlink:href="#S" transform="matrix(14 0 0 -14 429.767 67.138)"/><use xlink:href="#m" transform="matrix(14 0 0 -14 435.89 64.8)"/><use xlink:href="#t" transform="matrix(14 0 0 -14 444.563 64.8)" fill="#bf9000"/><symbol id="T"><path d="M.48.263A.332.332 0 0 0 .462.156.237.237 0 0 0 .415.073.212.212 0 0 0 .338.019.266.266 0 0 0 .235 0a.282.282 0 0 0-.099.016.193.193 0 0 0-.12.128A.355.355 0 0 0 0 .256c0 .04.006.076.017.108a.214.214 0 0 0 .125.135c.03.013.065.02.103.02C.282.518.315.512.344.5a.19.19 0 0 0 .12-.128.341.341 0 0 0 .015-.11M.355.26c0 .052-.01.09-.029.116C.307.402.278.415.241.415A.108.108 0 0 1 .188.403.102.102 0 0 1 .15.369a.15.15 0 0 1-.02-.05.276.276 0 0 1-.007-.06c0-.051.01-.09.031-.117C.176.116.205.103.241.103a.1.1 0 0 1 .087.045c.01.014.016.031.02.05.005.02.007.04.007.062z"/></symbol><use xlink:href="#d" transform="matrix(14 0 0 -14 366.14 81.6)" fill="#2e75b6"/><use xlink:href="#T" transform="matrix(14 0 0 -14 374.383 81.757)" fill="#2e75b6"/><use xlink:href="#p" transform="matrix(14 0 0 -14 382.871 81.6)" fill="#2e75b6"/><symbol id="U"><path d="M.55 0H0v.07h.55V0z"/></symbol><use xlink:href="#U" transform="matrix(14 0 0 -14 397.14 84.403)"/><use xlink:href="#m" transform="matrix(14 0 0 -14 404.89 81.6)"/><use xlink:href="#l" transform="matrix(14 0 0 -14 413.631 81.6)" fill="#2e75b6"/><use xlink:href="#s" transform="matrix(14 0 0 -14 421.34 81.6)" fill="#2e75b6"/><symbol id="V"><path d="M0 .49h.078L.08.4C.11.435.138.46.166.476A.175.175 0 0 0 .25.499c.05 0 .09-.016.115-.05C.393.418.405.369.403.304H.317c0 .043-.005.074-.02.093a.067.067 0 0 1-.058.03.102.102 0 0 1-.035-.007A.135.135 0 0 1 .168.4.636.636 0 0 1 .085.315V0H0v.49z"/></symbol><symbol id="W"><path d="M.385.626A.148.148 0 0 0 .414.537.17.17 0 0 0 .4.467.152.152 0 0 0 .36.414.184.184 0 0 0 .3.378.25.25 0 0 0 .165.372.152.152 0 0 0 .122.39.26.26 0 0 1 .106.363.058.058 0 0 1 .1.336C.1.324.106.313.118.306A.089.089 0 0 1 .165.291L.294.287A.288.288 0 0 0 .36.277.163.163 0 0 0 .415.255.109.109 0 0 0 .462.162.139.139 0 0 0 .404.05.225.225 0 0 0 .329.013.455.455 0 0 0 .12.01a.214.214 0 0 0-.068.026.104.104 0 0 0-.039.04A.106.106 0 0 0 0 .127c0 .024.006.045.017.062a.187.187 0 0 0 .05.052.081.081 0 0 0-.045.056.118.118 0 0 0 .012.081.31.31 0 0 0 .035.05.17.17 0 0 0-.029.045A.171.171 0 0 0 .034.5a.203.203 0 0 0 .01.103.16.16 0 0 0 .1.088.233.233 0 0 0 .143.004h.178V.626H.385M.09.134c0-.023.012-.04.036-.05A.253.253 0 0 1 .227.068c.027 0 .05.002.068.007a.131.131 0 0 1 .044.02.069.069 0 0 1 .032.058c0 .02-.008.035-.024.044a.17.17 0 0 1-.075.017L.144.218a.198.198 0 0 1-.027-.02A.085.085 0 0 1 .09.134m.026.4C.116.52.12.505.124.492A.094.094 0 0 1 .146.46.104.104 0 0 1 .222.43C.24.43.254.433.267.438a.097.097 0 0 1 .054.057.115.115 0 0 1 0 .083.094.094 0 0 1-.056.054.111.111 0 0 1-.043.008.102.102 0 0 1-.1-.065.116.116 0 0 1-.006-.04z"/></symbol><symbol id="X"><path d="M.435.28A.78.78 0 0 0 .433.227H.09c0-.05.014-.09.042-.116C.159.084.199.07.252.07a.631.631 0 0 1 .157.02V.023A.569.569 0 0 0 .239 0a.308.308 0 0 0-.108.017.189.189 0 0 0-.074.05.21.21 0 0 0-.043.079.386.386 0 0 0 0 .205c.01.03.025.058.044.08a.21.21 0 0 0 .165.077.24.24 0 0 0 .09-.016A.188.188 0 0 0 .42.374.294.294 0 0 0 .436.28M.347.292a.183.183 0 0 1-.007.06.124.124 0 0 1-.024.046.108.108 0 0 1-.04.03.134.134 0 0 1-.108.001.116.116 0 0 1-.04-.03.156.156 0 0 1-.026-.047.216.216 0 0 1-.013-.06h.258z"/></symbol><use xlink:href="#V" transform="matrix(14 0 0 -14 437.264 81.6)" fill="#7030a0"/><use xlink:href="#R" transform="matrix(14 0 0 -14 444.55 81.723)" fill="#7030a0"/><use xlink:href="#i" transform="matrix(14 0 0 -14 452.485 81.6)" fill="#7030a0"/><use xlink:href="#W" transform="matrix(14 0 0 -14 459.784 84.471)" fill="#7030a0"/><use xlink:href="#X" transform="matrix(14 0 0 -14 467.691 81.723)" fill="#7030a0"/><use xlink:href="#h" transform="matrix(14 0 0 -14 476.69 84.471)"/><use xlink:href="#i" transform="matrix(14 0 0 -14 483.484 81.6)"/><use xlink:href="#j" transform="matrix(14 0 0 -14 491.918 84.471)"/><use xlink:href="#k" transform="matrix(14 0 0 -14 500.694 81.723)"/><use xlink:href="#R" transform="matrix(14 0 0 -14 382.55 98.763)"/><use xlink:href="#S" transform="matrix(14 0 0 -14 391.017 100.978)"/><use xlink:href="#m" transform="matrix(14 0 0 -14 397.14 98.64)"/><use xlink:href="#g" transform="matrix(14 0 0 -14 405.985 98.722)"/><use xlink:href="#m" transform="matrix(14 0 0 -14 412.642 98.64)"/><use xlink:href="#n" transform="matrix(14 0 0 -14 421.301 96.603)"/><use xlink:href="#m" transform="matrix(14 0 0 -14 428.142 98.64)"/><use xlink:href="#g" transform="matrix(14 0 0 -14 436.987 98.722)"/><use xlink:href="#S" transform="matrix(14 0 0 -14 445.27 100.978)"/><use xlink:href="#m" transform="matrix(14 0 0 -14 451.394 98.64)"/><use xlink:href="#R" transform="matrix(14 0 0 -14 460.053 98.763)"/><use xlink:href="#m" transform="matrix(14 0 0 -14 466.894 98.64)"/><use xlink:href="#v" transform="matrix(14 0 0 -14 475.219 98.223)"/><use xlink:href="#m" transform="matrix(14 0 0 -14 482.395 98.64)"/><use xlink:href="#g" transform="matrix(14 0 0 -14 491.24 98.722)"/><use xlink:href="#p" transform="matrix(14 0 0 -14 367.37 114.72)" fill="#2e75b6"/><use xlink:href="#c" transform="matrix(14 0 0 -14 374.588 114.877)" fill="#2e75b6"/><use xlink:href="#q" transform="matrix(14 0 0 -14 382.044 114.877)" fill="#2e75b6"/><use xlink:href="#r" transform="matrix(14 0 0 -14 390.328 114.877)" fill="#2e75b6"/><use xlink:href="#p" transform="matrix(14 0 0 -14 398.372 114.72)" fill="#2e75b6"/><use xlink:href="#s" transform="matrix(14 0 0 -14 405.842 114.72)" fill="#2e75b6"/><use xlink:href="#R" transform="matrix(14 0 0 -14 421.3 114.843)"/><path d="M343.44 3.756h332.64v27.36H343.44z" fill="#44546a"/><path stroke-width="1.524" stroke-miterlimit="8" fill="none" stroke="#44546a" d="M343.44 3.756h332.64v27.36H343.44z"/><symbol id="Y"><path d="M.358.275v.121h.311V.111A.48.48 0 0 0 .363 0a.393.393 0 0 0-.196.046.301.301 0 0 0-.125.135.437.437 0 0 0-.042.19c0 .075.016.141.047.2a.316.316 0 0 0 .137.133.37.37 0 0 0 .171.035.34.34 0 0 0 .208-.056A.251.251 0 0 0 .66.53L.517.503a.15.15 0 0 1-.058.083.17.17 0 0 1-.104.03.197.197 0 0 1-.15-.06C.167.517.149.458.149.379.149.293.168.23.206.187A.19.19 0 0 1 .354.124c.03 0 .06.005.09.017.031.012.058.027.08.044v.09H.357z"/></symbol><symbol id="Z"><path d="M0 0v.716h.232a.841.841 0 0 0 .172-.01.187.187 0 0 0 .103-.071.221.221 0 0 0 .041-.14.234.234 0 0 0-.024-.11A.197.197 0 0 0 .39.28a.825.825 0 0 0-.15-.01H.145V0H0m.145.595V.392h.079c.057 0 .095.003.114.01.02.008.034.02.045.036a.095.095 0 0 1 .016.056.092.092 0 0 1-.023.064.1.1 0 0 1-.058.032.695.695 0 0 1-.104.005h-.07z"/></symbol><symbol id="aa"><path d="M.212 0v.595H0v.12h.569v-.12H.357V0H.212z"/></symbol><use xlink:href="#Y" transform="matrix(14 0 0 -14 417.21 23.21)" fill="#fff"/><use xlink:href="#Z" transform="matrix(14 0 0 -14 428.434 23.04)" fill="#fff"/><use xlink:href="#aa" transform="matrix(14 0 0 -14 437.093 23.04)" fill="#fff"/><symbol id="ab"><path d="M0 0v.137h.27V0H0z"/></symbol><use xlink:href="#ab" transform="matrix(14 0 0 -14 445.306 20.367)" fill="#fff"/><symbol id="ac"><path d="M.293 0v.144H0v.12L.31.72h.116V.265h.089V.144h-.09V0H.294m0 .265v.244L.128.265h.165z"/></symbol><use xlink:href="#ac" transform="matrix(14 0 0 -14 449.405 23.04)" fill="#fff"/><symbol id="ad"><path d="M0 .012v.716h.137V.47a.202.202 0 0 0 .307.003C.486.428.506.362.506.276A.299.299 0 0 0 .443.072a.197.197 0 0 0-.316.016V.012H0m.136.27A.22.22 0 0 1 .162.163.109.109 0 0 1 .256.108c.03 0 .056.013.077.039.022.026.033.067.033.123C.366.329.355.37.333.397a.102.102 0 0 1-.082.04.103.103 0 0 1-.082-.039C.147.373.136.334.136.282z"/></symbol><use xlink:href="#aa" transform="matrix(14 0 0 -14 461.07 23.04)" fill="#fff"/><use xlink:href="#y" transform="matrix(14 0 0 -14 469.194 23.204)" fill="#fff"/><use xlink:href="#L" transform="matrix(14 0 0 -14 477.65 23.04)" fill="#fff"/><use xlink:href="#ad" transform="matrix(14 0 0 -14 483.15 23.204)" fill="#fff"/><use xlink:href="#Q" transform="matrix(14 0 0 -14 491.285 23.204)" fill="#fff"/><use xlink:href="#F" transform="matrix(14 0 0 -14 500.595 23.04)" fill="#fff"/><symbol id="ae"><path d="M0 .366C0 .482.03.574.092.64c.061.067.146.1.254.1a.329.329 0 0 0 .256-.1.385.385 0 0 0 .092-.27A.381.381 0 0 0 .602.1.316.316 0 0 0 .358 0a.399.399 0 0 0-.195.042.302.302 0 0 0-.12.125A.422.422 0 0 0 0 .366M.149.37c0-.084.02-.146.058-.186a.187.187 0 0 1 .14-.061c.056 0 .103.02.14.06.039.04.058.103.058.188 0 .08-.018.141-.053.183a.18.18 0 0 1-.144.062.181.181 0 0 1-.146-.063C.167.512.149.45.149.37M.23.31v.12h.232V.31H.231z"/></symbol><use xlink:href="#ae" transform="matrix(14 0 0 -14 508.318 23.21)" fill="#fff"/><symbol id="af"><path d="M.247 0H.153a.95.95 0 0 0-.114.234.74.74 0 0 0 .01.502C.075.81.111.878.154.939h.094A1.496 1.496 0 0 1 .156.687a.937.937 0 0 1-.01-.384A1.091 1.091 0 0 1 .247 0z"/></symbol><use xlink:href="#af" transform="matrix(14 0 0 -14 519.336 25.986)" fill="#fff"/><symbol id="ag"><path d="M.108.519h.133L.228.45A.361.361 0 0 0 .32.512a.23.23 0 0 0 .092.019.136.136 0 0 0 .1-.037A.13.13 0 0 0 .55.397.615.615 0 0 0 .533.293L.473 0H.331l.062.294c.009.044.013.07.013.079a.055.055 0 0 1-.016.042.06.06 0 0 1-.044.016A.124.124 0 0 1 .28.405a.18.18 0 0 1-.06-.069.578.578 0 0 1-.034-.123L.14 0H0l.108.519z"/></symbol><use xlink:href="#ag" transform="matrix(14 0 0 -14 523.818 23.04)" fill="#fff"/><symbol id="ah"><path d="M.001 0A.986.986 0 0 1 .11.355a.9.9 0 0 1-.018.332A1.46 1.46 0 0 1 0 .938h.093A.89.89 0 0 0 .208.716.72.72 0 0 0 .216.258.92.92 0 0 0 .096 0H0z"/></symbol><use xlink:href="#ah" transform="matrix(14 0 0 -14 532.188 25.986)" fill="#fff"/><symbol id="ai"><path d="M.294.53V.42H.201V.213C.2.17.2.145.203.138A.032.032 0 0 1 .215.12.04.04 0 0 1 .24.114c.012 0 .03.004.055.013L.306.021A.273.273 0 0 0 .197 0 .175.175 0 0 0 .13.012a.102.102 0 0 0-.044.032.132.132 0 0 0-.019.054.665.665 0 0 0-.004.097V.42H0v.11h.063v.102l.138.08V.53h.093z"/></symbol><use xlink:href="#P" transform="matrix(14 0 0 -14 541.235 23.04)" fill="#fff"/><use xlink:href="#ai" transform="matrix(14 0 0 -14 544.317 23.204)" fill="#fff"/><use xlink:href="#M" transform="matrix(14 0 0 -14 549.18 23.204)" fill="#fff"/><use xlink:href="#L" transform="matrix(14 0 0 -14 557.412 23.04)" fill="#fff"/><use xlink:href="#A" transform="matrix(14 0 0 -14 562.488 23.204)" fill="#fff"/><use xlink:href="#ai" transform="matrix(14 0 0 -14 569.954 23.204)" fill="#fff"/><use xlink:href="#P" transform="matrix(14 0 0 -14 575.378 23.04)" fill="#fff"/><use xlink:href="#Q" transform="matrix(14 0 0 -14 578.809 23.204)" fill="#fff"/><use xlink:href="#B" transform="matrix(14 0 0 -14 587.735 23.04)" fill="#fff"/><use xlink:href="#O" transform="matrix(14 0 0 -14 595.567 23.204)" fill="#fff"/><path d="M683.28 31.116h332.64v126.02H683.28z" fill="#fff"/><path stroke-width="1.524" stroke-miterlimit="8" fill="none" stroke="#44546a" d="M683.28 31.116h332.64v126.02H683.28z"/><use xlink:href="#b" transform="matrix(14 0 0 -14 691 47.917)" fill="#2e75b6"/><use xlink:href="#c" transform="matrix(14 0 0 -14 698.928 47.917)" fill="#2e75b6"/><use xlink:href="#d" transform="matrix(14 0 0 -14 705.98 47.76)" fill="#2e75b6"/><use xlink:href="#e" transform="matrix(14 0 0 -14 721.48 47.76)"/><use xlink:href="#f" transform="matrix(14 0 0 -14 730.406 47.76)"/><use xlink:href="#g" transform="matrix(14 0 0 -14 738.074 47.842)"/><use xlink:href="#h" transform="matrix(14 0 0 -14 746.782 50.631)"/><use xlink:href="#i" transform="matrix(14 0 0 -14 753.575 47.76)"/><use xlink:href="#j" transform="matrix(14 0 0 -14 762.01 50.631)"/><use xlink:href="#k" transform="matrix(14 0 0 -14 770.785 47.883)"/><use xlink:href="#l" transform="matrix(14 0 0 -14 706.971 64.8)" fill="#2e75b6"/><use xlink:href="#d" transform="matrix(14 0 0 -14 713.73 64.8)" fill="#2e75b6"/><use xlink:href="#i" transform="matrix(14 0 0 -14 730.324 64.8)"/><use xlink:href="#m" transform="matrix(14 0 0 -14 736.98 64.8)"/><use xlink:href="#n" transform="matrix(14 0 0 -14 745.64 62.763)"/><use xlink:href="#n" transform="matrix(14 0 0 -14 753.39 62.763)"/><use xlink:href="#m" transform="matrix(14 0 0 -14 760.23 64.8)"/><use xlink:href="#o" transform="matrix(14 0 0 -14 768.582 64.923)" fill="#bf9000"/><use xlink:href="#k" transform="matrix(14 0 0 -14 778.533 64.923)"/><use xlink:href="#m" transform="matrix(14 0 0 -14 783.48 64.8)"/><use xlink:href="#p" transform="matrix(14 0 0 -14 792.46 64.8)" fill="#2e75b6"/><use xlink:href="#c" transform="matrix(14 0 0 -14 799.678 64.957)" fill="#2e75b6"/><use xlink:href="#q" transform="matrix(14 0 0 -14 807.134 64.957)" fill="#2e75b6"/><use xlink:href="#r" transform="matrix(14 0 0 -14 815.418 64.957)" fill="#2e75b6"/><use xlink:href="#p" transform="matrix(14 0 0 -14 823.462 64.8)" fill="#2e75b6"/><use xlink:href="#s" transform="matrix(14 0 0 -14 830.932 64.8)" fill="#2e75b6"/><use xlink:href="#o" transform="matrix(14 0 0 -14 846.082 64.923)" fill="#bf9000"/><use xlink:href="#R" transform="matrix(14 0 0 -14 706.89 81.723)"/><use xlink:href="#S" transform="matrix(14 0 0 -14 715.357 83.938)"/><use xlink:href="#m" transform="matrix(14 0 0 -14 721.48 81.6)"/><use xlink:href="#g" transform="matrix(14 0 0 -14 730.325 81.682)"/><use xlink:href="#m" transform="matrix(14 0 0 -14 736.982 81.6)"/><use xlink:href="#n" transform="matrix(14 0 0 -14 745.641 79.563)"/><use xlink:href="#m" transform="matrix(14 0 0 -14 752.482 81.6)"/><use xlink:href="#o" transform="matrix(14 0 0 -14 760.832 81.723)" fill="#bf9000"/><use xlink:href="#S" transform="matrix(14 0 0 -14 769.607 83.938)"/><use xlink:href="#m" transform="matrix(14 0 0 -14 775.73 81.6)"/><use xlink:href="#t" transform="matrix(14 0 0 -14 784.403 81.6)" fill="#bf9000"/><use xlink:href="#d" transform="matrix(14 0 0 -14 705.98 98.64)" fill="#2e75b6"/><use xlink:href="#T" transform="matrix(14 0 0 -14 714.223 98.797)" fill="#2e75b6"/><use xlink:href="#p" transform="matrix(14 0 0 -14 722.711 98.64)" fill="#2e75b6"/><use xlink:href="#i" transform="matrix(14 0 0 -14 738.074 98.64)"/><use xlink:href="#m" transform="matrix(14 0 0 -14 744.73 98.64)"/><use xlink:href="#l" transform="matrix(14 0 0 -14 753.471 98.64)" fill="#2e75b6"/><use xlink:href="#s" transform="matrix(14 0 0 -14 761.18 98.64)" fill="#2e75b6"/><use xlink:href="#g" transform="matrix(14 0 0 -14 776.824 98.722)" fill="#7030a0"/><use xlink:href="#f" transform="matrix(14 0 0 -14 784.656 98.64)" fill="#7030a0"/><use xlink:href="#i" transform="matrix(14 0 0 -14 792.324 98.64)" fill="#7030a0"/><symbol id="aj"><path d="M.24 0H0v.907h.24V.84H.082v-.77h.16V0z"/></symbol><use xlink:href="#h" transform="matrix(14 0 0 -14 801.03 101.511)"/><use xlink:href="#i" transform="matrix(14 0 0 -14 807.824 98.64)"/><use xlink:href="#j" transform="matrix(14 0 0 -14 816.258 101.511)"/><use xlink:href="#aj" transform="matrix(14 0 0 -14 824.59 101.443)"/><symbol id="ak"><path d="M.4.203A.182.182 0 0 0 .332.059.26.26 0 0 0 .246.016.419.419 0 0 0 .125 0 .858.858 0 0 0 0 .009v.076A.727.727 0 0 1 .133.074c.032 0 .059.002.081.008A.157.157 0 0 1 .27.107c.014.01.025.024.031.039.007.015.01.033.01.052a.088.088 0 0 1-.045.078.156.156 0 0 1-.05.02.284.284 0 0 1-.065.007H.078v.07h.074c.02 0 .036.002.052.007s.03.012.04.022a.09.09 0 0 1 .027.035C.277.45.28.467.28.484.28.518.27.543.249.559a.152.152 0 0 1-.092.023.582.582 0 0 1-.14-.025V.63A.343.343 0 0 0 .09.649.384.384 0 0 0 .252.645.18.18 0 0 0 .317.613a.132.132 0 0 0 .039-.05.159.159 0 0 0 .013-.065.147.147 0 0 0-.028-.092.192.192 0 0 0-.077-.06.17.17 0 0 0 .124-.088A.124.124 0 0 0 .4.203z"/></symbol><use xlink:href="#ak" transform="matrix(14 0 0 -14 831.101 98.763)" fill="#bf9000"/><symbol id="al"><path d="M.24 0H0v.068h.159v.77H0v.07h.24V0z"/></symbol><use xlink:href="#k" transform="matrix(14 0 0 -14 848.283 98.763)"/><use xlink:href="#al" transform="matrix(14 0 0 -14 855.2 101.443)"/><use xlink:href="#k" transform="matrix(14 0 0 -14 863.784 98.763)"/><symbol id="am"><path d="M.39.134.355.076.219.167.23 0H.16l.01.167-.14-.09L0 .132l.15.074L0 .282.034.34.172.247.16.414h.07L.218.247.356.34.39.28.24.206.39.134z"/></symbol><use xlink:href="#R" transform="matrix(14 0 0 -14 722.39 114.843)"/><use xlink:href="#S" transform="matrix(14 0 0 -14 730.857 117.058)"/><use xlink:href="#m" transform="matrix(14 0 0 -14 736.98 114.72)"/><use xlink:href="#g" transform="matrix(14 0 0 -14 745.825 114.802)"/><use xlink:href="#m" transform="matrix(14 0 0 -14 752.482 114.72)"/><use xlink:href="#n" transform="matrix(14 0 0 -14 761.141 112.683)"/><use xlink:href="#m" transform="matrix(14 0 0 -14 767.982 114.72)"/><use xlink:href="#R" transform="matrix(14 0 0 -14 776.642 114.843)"/><use xlink:href="#m" transform="matrix(14 0 0 -14 783.483 114.72)"/><use xlink:href="#am" transform="matrix(14 0 0 -14 792.355 110.858)"/><use xlink:href="#m" transform="matrix(14 0 0 -14 798.984 114.72)"/><use xlink:href="#R" transform="matrix(14 0 0 -14 807.644 114.843)"/><use xlink:href="#m" transform="matrix(14 0 0 -14 814.485 114.72)"/><use xlink:href="#v" transform="matrix(14 0 0 -14 822.81 114.303)"/><use xlink:href="#m" transform="matrix(14 0 0 -14 829.986 114.72)"/><use xlink:href="#g" transform="matrix(14 0 0 -14 838.83 114.802)"/><use xlink:href="#m" transform="matrix(14 0 0 -14 845.486 114.72)"/><use xlink:href="#am" transform="matrix(14 0 0 -14 854.358 110.858)"/><use xlink:href="#m" transform="matrix(14 0 0 -14 860.987 114.72)"/><use xlink:href="#g" transform="matrix(14 0 0 -14 869.831 114.802)"/><use xlink:href="#S" transform="matrix(14 0 0 -14 878.115 117.058)"/><use xlink:href="#m" transform="matrix(14 0 0 -14 884.238 114.72)"/><use xlink:href="#g" transform="matrix(14 0 0 -14 893.082 114.802)"/><use xlink:href="#m" transform="matrix(14 0 0 -14 899.74 114.72)"/><use xlink:href="#am" transform="matrix(14 0 0 -14 908.61 110.858)"/><use xlink:href="#m" transform="matrix(14 0 0 -14 915.24 114.72)"/><use xlink:href="#h" transform="matrix(14 0 0 -14 925.041 117.591)"/><use xlink:href="#R" transform="matrix(14 0 0 -14 931.65 114.843)"/><use xlink:href="#m" transform="matrix(14 0 0 -14 938.491 114.72)"/><use xlink:href="#am" transform="matrix(14 0 0 -14 947.363 110.858)"/><use xlink:href="#m" transform="matrix(14 0 0 -14 953.992 114.72)"/><use xlink:href="#w" transform="matrix(14 0 0 -14 962.735 114.72)" fill="#bf9000"/><use xlink:href="#v" transform="matrix(14 0 0 -14 977.804 114.303)"/><use xlink:href="#m" transform="matrix(14 0 0 -14 984.98 114.72)"/><use xlink:href="#g" transform="matrix(14 0 0 -14 993.824 114.802)"/><use xlink:href="#j" transform="matrix(14 0 0 -14 1002.259 117.591)"/><use xlink:href="#l" transform="matrix(14 0 0 -14 722.471 131.76)" fill="#2e75b6"/><use xlink:href="#d" transform="matrix(14 0 0 -14 729.23 131.76)" fill="#2e75b6"/><use xlink:href="#i" transform="matrix(14 0 0 -14 745.824 131.76)"/><use xlink:href="#m" transform="matrix(14 0 0 -14 752.48 131.76)"/><use xlink:href="#n" transform="matrix(14 0 0 -14 761.14 129.723)"/><use xlink:href="#n" transform="matrix(14 0 0 -14 768.89 129.723)"/><use xlink:href="#m" transform="matrix(14 0 0 -14 775.732 131.76)"/><symbol id="an"><path d="M.112.229.098 0H.014L0 .229h.112z"/></symbol><use xlink:href="#an" transform="matrix(14 0 0 -14 786.55 125.307)" fill="#bf9000"/><use xlink:href="#t" transform="matrix(14 0 0 -14 792.153 131.76)" fill="#bf9000"/><use xlink:href="#an" transform="matrix(14 0 0 -14 802.05 125.307)" fill="#bf9000"/><use xlink:href="#k" transform="matrix(14 0 0 -14 809.533 131.883)"/><use xlink:href="#R" transform="matrix(14 0 0 -14 823.14 131.883)"/><use xlink:href="#S" transform="matrix(14 0 0 -14 831.607 134.098)"/><use xlink:href="#m" transform="matrix(14 0 0 -14 837.73 131.76)"/><use xlink:href="#g" transform="matrix(14 0 0 -14 846.575 131.842)"/><use xlink:href="#m" transform="matrix(14 0 0 -14 853.232 131.76)"/><use xlink:href="#n" transform="matrix(14 0 0 -14 861.891 129.723)"/><use xlink:href="#m" transform="matrix(14 0 0 -14 868.732 131.76)"/><use xlink:href="#g" transform="matrix(14 0 0 -14 877.577 131.842)"/><use xlink:href="#S" transform="matrix(14 0 0 -14 885.86 134.098)"/><use xlink:href="#m" transform="matrix(14 0 0 -14 891.984 131.76)"/><use xlink:href="#R" transform="matrix(14 0 0 -14 900.643 131.883)"/><use xlink:href="#m" transform="matrix(14 0 0 -14 907.484 131.76)"/><use xlink:href="#v" transform="matrix(14 0 0 -14 915.809 131.343)"/><use xlink:href="#m" transform="matrix(14 0 0 -14 922.985 131.76)"/><use xlink:href="#g" transform="matrix(14 0 0 -14 931.83 131.842)"/><use xlink:href="#p" transform="matrix(14 0 0 -14 707.21 148.8)" fill="#2e75b6"/><use xlink:href="#c" transform="matrix(14 0 0 -14 714.428 148.957)" fill="#2e75b6"/><use xlink:href="#q" transform="matrix(14 0 0 -14 721.884 148.957)" fill="#2e75b6"/><use xlink:href="#r" transform="matrix(14 0 0 -14 730.168 148.957)" fill="#2e75b6"/><use xlink:href="#p" transform="matrix(14 0 0 -14 738.212 148.8)" fill="#2e75b6"/><use xlink:href="#s" transform="matrix(14 0 0 -14 745.682 148.8)" fill="#2e75b6"/><use xlink:href="#g" transform="matrix(14 0 0 -14 761.324 148.882)"/><path d="M683.28 3.6h332.64v27.36H683.28z" fill="#44546a"/><path stroke-width="1.524" stroke-miterlimit="8" fill="none" stroke="#44546a" d="M683.28 3.6h332.64v27.36H683.28z"/><symbol id="ao"><path d="M0 .366C0 .439.01.5.033.549a.34.34 0 0 0 .066.098c.028.03.06.05.093.065A.393.393 0 0 0 .346.74C.452.74.536.708.6.642A.376.376 0 0 0 .694.37.376.376 0 0 0 .6.098.334.334 0 0 0 .348 0a.337.337 0 0 0-.254.097A.37.37 0 0 0 0 .366M.149.37C.149.29.168.228.205.186A.183.183 0 0 1 .348.124c.057 0 .104.02.141.062.037.041.056.104.056.187C.545.455.527.516.49.556a.182.182 0 0 1-.143.06.183.183 0 0 1-.144-.06C.167.513.149.452.149.37z"/></symbol><use xlink:href="#ao" transform="matrix(14 0 0 -14 770.77 22.97)" fill="#fff"/><use xlink:href="#y" transform="matrix(14 0 0 -14 782.001 22.964)" fill="#fff"/><use xlink:href="#L" transform="matrix(14 0 0 -14 790.456 22.8)" fill="#fff"/><use xlink:href="#O" transform="matrix(14 0 0 -14 795.36 22.964)" fill="#fff"/><use xlink:href="#F" transform="matrix(14 0 0 -14 804.16 22.8)" fill="#fff"/><use xlink:href="#ae" transform="matrix(14 0 0 -14 811.875 22.97)" fill="#fff"/><symbol id="ap"><path d="M.018.176.175.157C.177.14.183.127.193.12.206.11.226.105.254.105a.16.16 0 0 1 .081.016.066.066 0 0 1 .027.035.208.208 0 0 1 .007.063v.075A.186.186 0 0 0 .213.21C.143.21.09.24.048.3A.3.3 0 0 0 0 .473C0 .56.02.626.063.672A.203.203 0 0 0 .218.74.19.19 0 0 0 .377.656V.73h.129V.264A.464.464 0 0 0 .49.126a.17.17 0 0 0-.043-.07.188.188 0 0 0-.073-.041A.382.382 0 0 0 .26 0C.172 0 .11.015.073.045A.141.141 0 0 0 .018.16v.016M.141.48C.14.425.15.385.172.36A.1.1 0 0 1 .252.32a.11.11 0 0 1 .084.04C.36.386.371.425.371.476c0 .054-.011.094-.033.12a.106.106 0 0 1-.084.039.102.102 0 0 1-.082-.039C.152.572.141.533.141.48z"/></symbol><use xlink:href="#af" transform="matrix(14 0 0 -14 822.894 25.746)" fill="#fff"/><use xlink:href="#E" transform="matrix(14 0 0 -14 827.793 22.8)" fill="#fff"/><use xlink:href="#Q" transform="matrix(14 0 0 -14 831.218 22.964)" fill="#fff"/><use xlink:href="#ap" transform="matrix(14 0 0 -14 839.736 25.746)" fill="#fff"/><use xlink:href="#ag" transform="matrix(14 0 0 -14 849.875 22.8)" fill="#fff"/><use xlink:href="#ah" transform="matrix(14 0 0 -14 858.245 25.746)" fill="#fff"/><use xlink:href="#P" transform="matrix(14 0 0 -14 867.292 22.8)" fill="#fff"/><use xlink:href="#ai" transform="matrix(14 0 0 -14 870.375 22.964)" fill="#fff"/><use xlink:href="#M" transform="matrix(14 0 0 -14 875.238 22.964)" fill="#fff"/><use xlink:href="#L" transform="matrix(14 0 0 -14 883.47 22.8)" fill="#fff"/><use xlink:href="#A" transform="matrix(14 0 0 -14 888.545 22.964)" fill="#fff"/><use xlink:href="#ai" transform="matrix(14 0 0 -14 896.011 22.964)" fill="#fff"/><use xlink:href="#P" transform="matrix(14 0 0 -14 901.436 22.8)" fill="#fff"/><use xlink:href="#Q" transform="matrix(14 0 0 -14 904.866 22.964)" fill="#fff"/><use xlink:href="#B" transform="matrix(14 0 0 -14 913.792 22.8)" fill="#fff"/><use xlink:href="#O" transform="matrix(14 0 0 -14 921.624 22.964)" fill="#fff"/><path d="M683.28 164.258h84.96v27.36h-84.96z" fill="#44546a"/><path stroke-width="1.524" stroke-miterlimit="8" fill="none" stroke="#44546a" d="M683.28 164.258h84.96v27.36h-84.96z"/><symbol id="aq"><path d="M0 0v.71h.145V.12h.359V0H0z"/></symbol><use xlink:href="#aq" transform="matrix(14 0 0 -14 703.208 183.6)" fill="#fff"/><use xlink:href="#M" transform="matrix(14 0 0 -14 711.079 183.764)" fill="#fff"/><use xlink:href="#D" transform="matrix(14 0 0 -14 718.467 183.6)" fill="#fff"/><use xlink:href="#M" transform="matrix(14 0 0 -14 726.593 183.764)" fill="#fff"/><use xlink:href="#E" transform="matrix(14 0 0 -14 734.911 183.6)" fill="#fff"/><symbol id="ar"><path d="M.232.731c.07 0 .124-.025.163-.074C.442.598.465.5.465.365.465.23.44.132.395.073A.195.195 0 0 0 .232 0a.205.205 0 0 0-.168.08C.021.134 0 .23 0 .367 0 .5.023.598.07.657a.195.195 0 0 0 .162.074m0-.114A.068.068 0 0 1 .188.601C.175.591.165.571.158.544A.785.785 0 0 1 .144.365c0-.084.004-.142.012-.173C.165.16.176.14.188.129A.07.07 0 0 1 .232.114a.07.07 0 0 1 .045.015C.29.14.3.16.307.187c.01.035.014.094.014.178A.775.775 0 0 1 .31.538C.3.57.289.591.276.601a.066.066 0 0 1-.044.016z"/></symbol><use xlink:href="#ar" transform="matrix(14 0 0 -14 742.223 183.77)" fill="#fff"/><path d="M957.6 164.258h27.36v27.36H957.6z" fill="#70ad47"/><path stroke-width="1.524" stroke-miterlimit="8" fill="none" stroke="#548235" d="M957.6 164.258h27.36v27.36H957.6z"/><symbol id="as"><path d="M.026.244a.307.307 0 0 0-.019.02C.002.27 0 .275 0 .28c0 .005.002.009.006.012l.016.01A.104.104 0 0 0 .06.309.02.02 0 0 0 .073.305.748.748 0 0 0 .168.196a1.81 1.81 0 0 0 .07-.104c.04.112.087.222.141.327.054.106.115.205.183.298.007.009.017.016.03.02.014.006.03.008.047.008.006 0 .01-.001.013-.003a.01.01 0 0 0 .005-.01L.656.723a2.502 2.502 0 0 1-.374-.71C.282.01.28.008.277.006A.087.087 0 0 0 .252.001.126.126 0 0 0 .236 0a.08.08 0 0 0-.02.002.02.02 0 0 0-.014.01 1.529 1.529 0 0 1-.084.127.918.918 0 0 1-.092.105z"/></symbol><use xlink:href="#as" transform="matrix(18 0 0 -17.64706 965.356 184.891)" fill="#fff"/><use xlink:href="#as" stroke-width=".112" stroke-miterlimit="10" transform="matrix(18 0 0 -17.64706 965.356 184.891)" fill="none" stroke="#fff"/><path d="M988.54 164.258h27.36v27.36h-27.36z" fill="#70ad47"/><path stroke-width="1.524" stroke-miterlimit="8" fill="none" stroke="#548235" d="M988.54 164.258h27.36v27.36h-27.36z"/><use xlink:href="#as" transform="matrix(18 0 0 -17.64706 996.296 184.891)" fill="#fff"/><use xlink:href="#as" stroke-width=".112" stroke-miterlimit="10" transform="matrix(18 0 0 -17.64706 996.296 184.891)" fill="none" stroke="#fff"/><path d="M895.68 164.258h27.36v27.36h-27.36z" fill="#70ad47"/><path stroke-width="1.524" stroke-miterlimit="8" fill="none" stroke="#548235" d="M895.68 164.258h27.36v27.36h-27.36z"/><use xlink:href="#as" transform="matrix(18 0 0 -17.64706 903.436 184.891)" fill="#fff"/><use xlink:href="#as" stroke-width=".112" stroke-miterlimit="10" transform="matrix(18 0 0 -17.64706 903.436 184.891)" fill="none" stroke="#fff"/><path d="M926.64 164.258H954v27.36h-27.36z" fill="#70ad47"/><path stroke-width="1.524" stroke-miterlimit="8" fill="none" stroke="#548235" d="M926.64 164.258H954v27.36h-27.36z"/><use xlink:href="#as" transform="matrix(18 0 0 -17.64706 934.396 184.891)" fill="#fff"/><use xlink:href="#as" stroke-width=".112" stroke-miterlimit="10" transform="matrix(18 0 0 -17.64706 934.396 184.891)" fill="none" stroke="#fff"/><path d="M833.76 164.258h27.36v27.36h-27.36z" fill="#70ad47"/><path stroke-width="1.524" stroke-miterlimit="8" fill="none" stroke="#548235" d="M833.76 164.258h27.36v27.36h-27.36z"/><use xlink:href="#as" transform="matrix(18 0 0 -17.64706 841.516 184.891)" fill="#fff"/><use xlink:href="#as" stroke-width=".112" stroke-miterlimit="10" transform="matrix(18 0 0 -17.64706 841.516 184.891)" fill="none" stroke="#fff"/><path d="M864.72 164.258h27.36v27.36h-27.36z" fill="#70ad47"/><path stroke-width="1.524" stroke-miterlimit="8" fill="none" stroke="#548235" d="M864.72 164.258h27.36v27.36h-27.36z"/><use xlink:href="#as" transform="matrix(18 0 0 -17.64706 872.476 184.891)" fill="#fff"/><use xlink:href="#as" stroke-width=".112" stroke-miterlimit="10" transform="matrix(18 0 0 -17.64706 872.476 184.891)" fill="none" stroke="#fff"/><path d="M771.84 164.448h27.36v27.36h-27.36z" fill="#70ad47"/><path stroke-width="1.524" stroke-miterlimit="8" fill="none" stroke="#548235" d="M771.84 164.448h27.36v27.36h-27.36z"/><use xlink:href="#as" transform="matrix(18 0 0 -17.64706 779.596 185.131)" fill="#fff"/><use xlink:href="#as" stroke-width=".112" stroke-miterlimit="10" transform="matrix(18 0 0 -17.64706 779.596 185.131)" fill="none" stroke="#fff"/><path d="M802.8 164.258h27.36v27.36H802.8z" fill="#70ad47"/><path stroke-width="1.524" stroke-miterlimit="8" fill="none" stroke="#548235" d="M802.8 164.258h27.36v27.36H802.8z"/><use xlink:href="#as" transform="matrix(18 0 0 -17.64706 810.556 184.891)" fill="#fff"/><use xlink:href="#as" stroke-width=".112" stroke-miterlimit="10" transform="matrix(18 0 0 -17.64706 810.556 184.891)" fill="none" stroke="#fff"/><path d="M683.28 195.218h84.96v27.36h-84.96z" fill="#44546a"/><path stroke-width="1.524" stroke-miterlimit="8" fill="none" stroke="#44546a" d="M683.28 195.218h84.96v27.36h-84.96z"/><use xlink:href="#aq" transform="matrix(14 0 0 -14 703.208 214.56)" fill="#fff"/><use xlink:href="#M" transform="matrix(14 0 0 -14 711.079 214.724)" fill="#fff"/><use xlink:href="#D" transform="matrix(14 0 0 -14 718.467 214.56)" fill="#fff"/><use xlink:href="#M" transform="matrix(14 0 0 -14 726.593 214.724)" fill="#fff"/><use xlink:href="#E" transform="matrix(14 0 0 -14 734.911 214.56)" fill="#fff"/><symbol id="at"><path d="M.314 0H.177v.517A.473.473 0 0 0 0 .413v.125a.4.4 0 0 1 .117.066c.042.033.07.071.086.115h.111V0z"/></symbol><use xlink:href="#at" transform="matrix(14 0 0 -14 742.742 214.56)" fill="#fff"/><path d="M833.76 195.218h27.36v27.36h-27.36z" fill="#70ad47"/><path stroke-width="1.524" stroke-miterlimit="8" fill="none" stroke="#548235" d="M833.76 195.218h27.36v27.36h-27.36z"/><use xlink:href="#as" transform="matrix(18 0 0 -17.64706 841.516 215.851)" fill="#fff"/><use xlink:href="#as" stroke-width=".112" stroke-miterlimit="10" transform="matrix(18 0 0 -17.64706 841.516 215.851)" fill="none" stroke="#fff"/><path d="M864.72 195.218h27.36v27.36h-27.36z" fill="#70ad47"/><path stroke-width="1.524" stroke-miterlimit="8" fill="none" stroke="#548235" d="M864.72 195.218h27.36v27.36h-27.36z"/><use xlink:href="#as" transform="matrix(18 0 0 -17.64706 872.476 215.851)" fill="#fff"/><use xlink:href="#as" stroke-width=".112" stroke-miterlimit="10" transform="matrix(18 0 0 -17.64706 872.476 215.851)" fill="none" stroke="#fff"/><path d="M771.84 195.408h27.36v27.36h-27.36z" fill="#70ad47"/><path stroke-width="1.524" stroke-miterlimit="8" fill="none" stroke="#548235" d="M771.84 195.408h27.36v27.36h-27.36z"/><use xlink:href="#as" transform="matrix(18 0 0 -17.64706 779.596 216.091)" fill="#fff"/><use xlink:href="#as" stroke-width=".112" stroke-miterlimit="10" transform="matrix(18 0 0 -17.64706 779.596 216.091)" fill="none" stroke="#fff"/><path d="M802.8 195.218h27.36v27.36H802.8z" fill="#70ad47"/><path stroke-width="1.524" stroke-miterlimit="8" fill="none" stroke="#548235" d="M802.8 195.218h27.36v27.36H802.8z"/><use xlink:href="#as" transform="matrix(18 0 0 -17.64706 810.556 215.851)" fill="#fff"/><use xlink:href="#as" stroke-width=".112" stroke-miterlimit="10" transform="matrix(18 0 0 -17.64706 810.556 215.851)" fill="none" stroke="#fff"/><path d="M683.28 226.178h84.96v27.36h-84.96z" fill="#44546a"/><path stroke-width="1.524" stroke-miterlimit="8" fill="none" stroke="#44546a" d="M683.28 226.178h84.96v27.36h-84.96z"/><use xlink:href="#aq" transform="matrix(14 0 0 -14 703.208 245.52)" fill="#fff"/><use xlink:href="#M" transform="matrix(14 0 0 -14 711.079 245.684)" fill="#fff"/><use xlink:href="#D" transform="matrix(14 0 0 -14 718.467 245.52)" fill="#fff"/><use xlink:href="#M" transform="matrix(14 0 0 -14 726.593 245.684)" fill="#fff"/><use xlink:href="#E" transform="matrix(14 0 0 -14 734.911 245.52)" fill="#fff"/><use xlink:href="#G" transform="matrix(14 0 0 -14 741.984 245.52)" fill="#fff"/><path d="M833.76 226.178h27.36v27.36h-27.36z" fill="#70ad47"/><path stroke-width="1.524" stroke-miterlimit="8" fill="none" stroke="#548235" d="M833.76 226.178h27.36v27.36h-27.36z"/><use xlink:href="#as" transform="matrix(18 0 0 -17.64706 841.516 246.811)" fill="#fff"/><use xlink:href="#as" stroke-width=".112" stroke-miterlimit="10" transform="matrix(18 0 0 -17.64706 841.516 246.811)" fill="none" stroke="#fff"/><path d="M864.72 226.178h27.36v27.36h-27.36z" fill="#70ad47"/><path stroke-width="1.524" stroke-miterlimit="8" fill="none" stroke="#548235" d="M864.72 226.178h27.36v27.36h-27.36z"/><use xlink:href="#as" transform="matrix(18 0 0 -17.64706 872.476 246.811)" fill="#fff"/><use xlink:href="#as" stroke-width=".112" stroke-miterlimit="10" transform="matrix(18 0 0 -17.64706 872.476 246.811)" fill="none" stroke="#fff"/><path d="M771.84 226.368h27.36v27.36h-27.36z" fill="#70ad47"/><path stroke-width="1.524" stroke-miterlimit="8" fill="none" stroke="#548235" d="M771.84 226.368h27.36v27.36h-27.36z"/><use xlink:href="#as" transform="matrix(18 0 0 -17.64706 779.596 247.051)" fill="#fff"/><use xlink:href="#as" stroke-width=".112" stroke-miterlimit="10" transform="matrix(18 0 0 -17.64706 779.596 247.051)" fill="none" stroke="#fff"/><path d="M802.8 226.178h27.36v27.36H802.8z" fill="#70ad47"/><path stroke-width="1.524" stroke-miterlimit="8" fill="none" stroke="#548235" d="M802.8 226.178h27.36v27.36H802.8z"/><use xlink:href="#as" transform="matrix(18 0 0 -17.64706 810.556 246.811)" fill="#fff"/><use xlink:href="#as" stroke-width=".112" stroke-miterlimit="10" transform="matrix(18 0 0 -17.64706 810.556 246.811)" fill="none" stroke="#fff"/><path d="M683.28 257.138h84.96v27.36h-84.96z" fill="#44546a"/><path stroke-width="1.524" stroke-miterlimit="8" fill="none" stroke="#44546a" d="M683.28 257.138h84.96v27.36h-84.96z"/><use xlink:href="#aq" transform="matrix(14 0 0 -14 703.208 276.48)" fill="#fff"/><use xlink:href="#M" transform="matrix(14 0 0 -14 711.079 276.644)" fill="#fff"/><use xlink:href="#D" transform="matrix(14 0 0 -14 718.467 276.48)" fill="#fff"/><use xlink:href="#M" transform="matrix(14 0 0 -14 726.593 276.644)" fill="#fff"/><use xlink:href="#E" transform="matrix(14 0 0 -14 734.911 276.48)" fill="#fff"/><symbol id="au"><path d="m0 .202.133.016A.126.126 0 0 1 .167.141.093.093 0 0 1 .234.114c.029 0 .052.01.072.032.02.021.029.05.029.087 0 .034-.01.062-.028.082a.089.089 0 0 1-.068.03.24.24 0 0 1-.063-.01l.015.112C.23.446.257.454.276.47c.02.017.03.04.03.068a.078.078 0 0 1-.022.058.077.077 0 0 1-.057.021.083.083 0 0 1-.06-.024.115.115 0 0 1-.03-.072L.01.544a.283.283 0 0 0 .04.103.18.18 0 0 0 .074.061.249.249 0 0 0 .107.023.213.213 0 0 0 .162-.064.168.168 0 0 0 .05-.12C.443.485.41.434.34.397a.166.166 0 0 0 .098-.06.17.17 0 0 0 .038-.11.215.215 0 0 0-.07-.16A.237.237 0 0 0 .237 0a.237.237 0 0 0-.162.056A.22.22 0 0 0 0 .202z"/></symbol><use xlink:href="#au" transform="matrix(14 0 0 -14 742.161 276.65)" fill="#fff"/><path d="M833.76 257.138h27.36v27.36h-27.36z" fill="#70ad47"/><path stroke-width="1.524" stroke-miterlimit="8" fill="none" stroke="#548235" d="M833.76 257.138h27.36v27.36h-27.36z"/><use xlink:href="#as" transform="matrix(18 0 0 -17.64706 841.516 277.771)" fill="#fff"/><use xlink:href="#as" stroke-width=".112" stroke-miterlimit="10" transform="matrix(18 0 0 -17.64706 841.516 277.771)" fill="none" stroke="#fff"/><path d="M864.72 257.138h27.36v27.36h-27.36z" fill="#70ad47"/><path stroke-width="1.524" stroke-miterlimit="8" fill="none" stroke="#548235" d="M864.72 257.138h27.36v27.36h-27.36z"/><use xlink:href="#as" transform="matrix(18 0 0 -17.64706 872.476 277.771)" fill="#fff"/><use xlink:href="#as" stroke-width=".112" stroke-miterlimit="10" transform="matrix(18 0 0 -17.64706 872.476 277.771)" fill="none" stroke="#fff"/><path d="M771.84 257.328h27.36v27.36h-27.36z" fill="#70ad47"/><path stroke-width="1.524" stroke-miterlimit="8" fill="none" stroke="#548235" d="M771.84 257.328h27.36v27.36h-27.36z"/><use xlink:href="#as" transform="matrix(18 0 0 -17.64706 779.596 278.011)" fill="#fff"/><use xlink:href="#as" stroke-width=".112" stroke-miterlimit="10" transform="matrix(18 0 0 -17.64706 779.596 278.011)" fill="none" stroke="#fff"/><path d="M802.8 257.138h27.36v27.36H802.8z" fill="#70ad47"/><path stroke-width="1.524" stroke-miterlimit="8" fill="none" stroke="#548235" d="M802.8 257.138h27.36v27.36H802.8z"/><use xlink:href="#as" transform="matrix(18 0 0 -17.64706 810.556 277.771)" fill="#fff"/><use xlink:href="#as" stroke-width=".112" stroke-miterlimit="10" transform="matrix(18 0 0 -17.64706 810.556 277.771)" fill="none" stroke="#fff"/><path d="M343.46 164.068h84.96v27.36h-84.96z" fill="#44546a"/><path stroke-width="1.524" stroke-miterlimit="8" fill="none" stroke="#44546a" d="M343.46 164.068h84.96v27.36h-84.96z"/><use xlink:href="#aq" transform="matrix(14 0 0 -14 363.388 183.36)" fill="#fff"/><use xlink:href="#M" transform="matrix(14 0 0 -14 371.259 183.524)" fill="#fff"/><use xlink:href="#D" transform="matrix(14 0 0 -14 378.647 183.36)" fill="#fff"/><use xlink:href="#M" transform="matrix(14 0 0 -14 386.773 183.524)" fill="#fff"/><use xlink:href="#E" transform="matrix(14 0 0 -14 395.091 183.36)" fill="#fff"/><use xlink:href="#ar" transform="matrix(14 0 0 -14 402.403 183.53)" fill="#fff"/><path d="M617.78 164.068h27.36v27.36h-27.36z" fill="#70ad47"/><path stroke-width="1.524" stroke-miterlimit="8" fill="none" stroke="#548235" d="M617.78 164.068h27.36v27.36h-27.36z"/><use xlink:href="#as" transform="matrix(18 0 0 -17.64706 625.536 184.891)" fill="#fff"/><use xlink:href="#as" stroke-width=".112" stroke-miterlimit="10" transform="matrix(18 0 0 -17.64706 625.536 184.891)" fill="none" stroke="#fff"/><path d="M648.72 164.068h27.36v27.36h-27.36z" fill="#70ad47"/><path stroke-width="1.524" stroke-miterlimit="8" fill="none" stroke="#548235" d="M648.72 164.068h27.36v27.36h-27.36z"/><use xlink:href="#as" transform="matrix(18 0 0 -17.64706 656.476 184.891)" fill="#fff"/><use xlink:href="#as" stroke-width=".112" stroke-miterlimit="10" transform="matrix(18 0 0 -17.64706 656.476 184.891)" fill="none" stroke="#fff"/><path d="M555.86 164.068h27.36v27.36h-27.36z" fill="#70ad47"/><path stroke-width="1.524" stroke-miterlimit="8" fill="none" stroke="#548235" d="M555.86 164.068h27.36v27.36h-27.36z"/><use xlink:href="#as" transform="matrix(18 0 0 -17.64706 563.616 184.891)" fill="#fff"/><use xlink:href="#as" stroke-width=".112" stroke-miterlimit="10" transform="matrix(18 0 0 -17.64706 563.616 184.891)" fill="none" stroke="#fff"/><path d="M586.82 164.068h27.36v27.36h-27.36z" fill="#70ad47"/><path stroke-width="1.524" stroke-miterlimit="8" fill="none" stroke="#548235" d="M586.82 164.068h27.36v27.36h-27.36z"/><use xlink:href="#as" transform="matrix(18 0 0 -17.64706 594.576 184.891)" fill="#fff"/><use xlink:href="#as" stroke-width=".112" stroke-miterlimit="10" transform="matrix(18 0 0 -17.64706 594.576 184.891)" fill="none" stroke="#fff"/><path d="M493.94 164.068h27.36v27.36h-27.36z" fill="#70ad47"/><path stroke-width="1.524" stroke-miterlimit="8" fill="none" stroke="#548235" d="M493.94 164.068h27.36v27.36h-27.36z"/><use xlink:href="#as" transform="matrix(18 0 0 -17.64706 501.696 184.891)" fill="#fff"/><use xlink:href="#as" stroke-width=".112" stroke-miterlimit="10" transform="matrix(18 0 0 -17.64706 501.696 184.891)" fill="none" stroke="#fff"/><path d="M524.9 164.068h27.36v27.36H524.9z" fill="#70ad47"/><path stroke-width="1.524" stroke-miterlimit="8" fill="none" stroke="#548235" d="M524.9 164.068h27.36v27.36H524.9z"/><use xlink:href="#as" transform="matrix(18 0 0 -17.64706 532.656 184.891)" fill="#fff"/><use xlink:href="#as" stroke-width=".112" stroke-miterlimit="10" transform="matrix(18 0 0 -17.64706 532.656 184.891)" fill="none" stroke="#fff"/><path d="M432.02 164.258h27.36v27.36h-27.36z" fill="#70ad47"/><path stroke-width="1.524" stroke-miterlimit="8" fill="none" stroke="#548235" d="M432.02 164.258h27.36v27.36h-27.36z"/><use xlink:href="#as" transform="matrix(18 0 0 -17.64706 439.776 184.891)" fill="#fff"/><use xlink:href="#as" stroke-width=".112" stroke-miterlimit="10" transform="matrix(18 0 0 -17.64706 439.776 184.891)" fill="none" stroke="#fff"/><path d="M462.98 164.068h27.36v27.36h-27.36z" fill="#70ad47"/><path stroke-width="1.524" stroke-miterlimit="8" fill="none" stroke="#548235" d="M462.98 164.068h27.36v27.36h-27.36z"/><use xlink:href="#as" transform="matrix(18 0 0 -17.64706 470.736 184.891)" fill="#fff"/><use xlink:href="#as" stroke-width=".112" stroke-miterlimit="10" transform="matrix(18 0 0 -17.64706 470.736 184.891)" fill="none" stroke="#fff"/><path d="M343.46 195.028h84.96v27.36h-84.96z" fill="#44546a"/><path stroke-width="1.524" stroke-miterlimit="8" fill="none" stroke="#44546a" d="M343.46 195.028h84.96v27.36h-84.96z"/><use xlink:href="#aq" transform="matrix(14 0 0 -14 363.388 214.32)" fill="#fff"/><use xlink:href="#M" transform="matrix(14 0 0 -14 371.259 214.484)" fill="#fff"/><use xlink:href="#D" transform="matrix(14 0 0 -14 378.647 214.32)" fill="#fff"/><use xlink:href="#M" transform="matrix(14 0 0 -14 386.773 214.484)" fill="#fff"/><use xlink:href="#E" transform="matrix(14 0 0 -14 395.091 214.32)" fill="#fff"/><use xlink:href="#at" transform="matrix(14 0 0 -14 402.922 214.32)" fill="#fff"/><path d="M493.94 195.028h27.36v27.36h-27.36z" fill="#70ad47"/><path stroke-width="1.524" stroke-miterlimit="8" fill="none" stroke="#548235" d="M493.94 195.028h27.36v27.36h-27.36z"/><use xlink:href="#as" transform="matrix(18 0 0 -17.64706 501.696 215.851)" fill="#fff"/><use xlink:href="#as" stroke-width=".112" stroke-miterlimit="10" transform="matrix(18 0 0 -17.64706 501.696 215.851)" fill="none" stroke="#fff"/><path d="M524.9 195.028h27.36v27.36H524.9z" fill="#70ad47"/><path stroke-width="1.524" stroke-miterlimit="8" fill="none" stroke="#548235" d="M524.9 195.028h27.36v27.36H524.9z"/><use xlink:href="#as" transform="matrix(18 0 0 -17.64706 532.656 215.851)" fill="#fff"/><use xlink:href="#as" stroke-width=".112" stroke-miterlimit="10" transform="matrix(18 0 0 -17.64706 532.656 215.851)" fill="none" stroke="#fff"/><path d="M432.02 195.218h27.36v27.36h-27.36z" fill="#70ad47"/><path stroke-width="1.524" stroke-miterlimit="8" fill="none" stroke="#548235" d="M432.02 195.218h27.36v27.36h-27.36z"/><use xlink:href="#as" transform="matrix(18 0 0 -17.64706 439.776 215.851)" fill="#fff"/><use xlink:href="#as" stroke-width=".112" stroke-miterlimit="10" transform="matrix(18 0 0 -17.64706 439.776 215.851)" fill="none" stroke="#fff"/><path d="M462.98 195.028h27.36v27.36h-27.36z" fill="#70ad47"/><path stroke-width="1.524" stroke-miterlimit="8" fill="none" stroke="#548235" d="M462.98 195.028h27.36v27.36h-27.36z"/><use xlink:href="#as" transform="matrix(18 0 0 -17.64706 470.736 215.851)" fill="#fff"/><use xlink:href="#as" stroke-width=".112" stroke-miterlimit="10" transform="matrix(18 0 0 -17.64706 470.736 215.851)" fill="none" stroke="#fff"/><path d="M343.46 225.988h84.96v27.36h-84.96z" fill="#44546a"/><path stroke-width="1.524" stroke-miterlimit="8" fill="none" stroke="#44546a" d="M343.46 225.988h84.96v27.36h-84.96z"/><use xlink:href="#aq" transform="matrix(14 0 0 -14 363.388 245.28)" fill="#fff"/><use xlink:href="#M" transform="matrix(14 0 0 -14 371.259 245.444)" fill="#fff"/><use xlink:href="#D" transform="matrix(14 0 0 -14 378.647 245.28)" fill="#fff"/><use xlink:href="#M" transform="matrix(14 0 0 -14 386.773 245.444)" fill="#fff"/><use xlink:href="#E" transform="matrix(14 0 0 -14 395.091 245.28)" fill="#fff"/><use xlink:href="#G" transform="matrix(14 0 0 -14 402.164 245.28)" fill="#fff"/><path d="M493.94 225.988h27.36v27.36h-27.36z" fill="#e7e6e6"/><path stroke-width="1.524" stroke-dasharray="1.524,1.524" stroke-miterlimit="8" fill="none" stroke="#afabab" d="M493.94 225.988h27.36v27.36h-27.36z"/><path d="M524.9 225.988h27.36v27.36H524.9z" fill="#e7e6e6"/><path stroke-width="1.524" stroke-dasharray="1.524,1.524" stroke-miterlimit="8" fill="none" stroke="#afabab" d="M524.9 225.988h27.36v27.36H524.9z"/><path d="M432.02 226.178h27.36v27.36h-27.36z" fill="#c00000"/><path stroke-width="1.524" stroke-miterlimit="8" fill="none" stroke="#843c0c" d="M432.02 226.178h27.36v27.36h-27.36z"/><symbol id="av"><path d="M.148.802.155.787A5.635 5.635 0 0 1 .283.53a4.177 4.177 0 0 0 .232.303.09.09 0 0 0 .012.011.044.044 0 0 0 .01.006L.54.84.556.85.548.832l.025.012L.567.829.583.83.568.811l.02.009a.08.08 0 0 0-.01-.017A3.415 3.415 0 0 1 .322.46 6.183 6.183 0 0 1 .5.158.675.675 0 0 0 .508.144L.495.145.498.128.477.14.485.116.467.124.466.111.449.13.452.116.44.127V.122a4.982 4.982 0 0 0-.165.265A3.274 3.274 0 0 1 .078.022L.07.008.063.016.051 0v.024L.033 0v.019L.016.007l.008.03L.004.02l.004.018L0 .034A.46.46 0 0 1 .006.05a3.212 3.212 0 0 0 .23.408A3.23 3.23 0 0 0 .09.757l-.01.02.015-.009-.006.025.013-.008-.003.019.02-.017L.11.81.124.8v.011L.136.796.134.809.148.794v.008z"/></symbol><use xlink:href="#av" transform="matrix(18 0 0 -17.64706 440.417 248.68)" fill="#fff"/><use xlink:href="#av" stroke-width=".112" stroke-miterlimit="10" transform="matrix(18 0 0 -17.64706 440.417 248.68)" fill="none" stroke="#fff"/><path d="M462.98 225.988h27.36v27.36h-27.36z" fill="#e7e6e6"/><path stroke-width="1.524" stroke-dasharray="1.524,1.524" stroke-miterlimit="8" fill="none" stroke="#afabab" d="M462.98 225.988h27.36v27.36h-27.36z"/><path d="M343.46 256.948h84.96v27.36h-84.96z" fill="#44546a"/><path stroke-width="1.524" stroke-miterlimit="8" fill="none" stroke="#44546a" d="M343.46 256.948h84.96v27.36h-84.96z"/><use xlink:href="#aq" transform="matrix(14 0 0 -14 363.388 276.24)" fill="#fff"/><use xlink:href="#M" transform="matrix(14 0 0 -14 371.259 276.404)" fill="#fff"/><use xlink:href="#D" transform="matrix(14 0 0 -14 378.647 276.24)" fill="#fff"/><use xlink:href="#M" transform="matrix(14 0 0 -14 386.773 276.404)" fill="#fff"/><use xlink:href="#E" transform="matrix(14 0 0 -14 395.091 276.24)" fill="#fff"/><use xlink:href="#au" transform="matrix(14 0 0 -14 402.341 276.41)" fill="#fff"/><path d="M493.94 256.948h27.36v27.36h-27.36z" fill="#e7e6e6"/><path stroke-width="1.524" stroke-dasharray="1.524,1.524" stroke-miterlimit="8" fill="none" stroke="#afabab" d="M493.94 256.948h27.36v27.36h-27.36z"/><path d="M524.9 256.948h27.36v27.36H524.9z" fill="#e7e6e6"/><path stroke-width="1.524" stroke-dasharray="1.524,1.524" stroke-miterlimit="8" fill="none" stroke="#afabab" d="M524.9 256.948h27.36v27.36H524.9z"/><path d="M432.02 257.138h27.36v27.36h-27.36z" fill="#e7e6e6"/><path stroke-width="1.524" stroke-dasharray="1.524,1.524" stroke-miterlimit="8" fill="none" stroke="#afabab" d="M432.02 257.138h27.36v27.36h-27.36z"/><path d="M462.98 256.948h27.36v27.36h-27.36z" fill="#e7e6e6"/><path stroke-width="1.524" stroke-dasharray="1.524,1.524" stroke-miterlimit="8" fill="none" stroke="#afabab" d="M462.98 256.948h27.36v27.36h-27.36z"/><path d="M3.6 164.258h84.96v27.36H3.6z" fill="#44546a"/><path stroke-width="1.524" stroke-miterlimit="8" fill="none" stroke="#44546a" d="M3.6 164.258h84.96v27.36H3.6z"/><use xlink:href="#aq" transform="matrix(14 0 0 -14 23.528 183.6)" fill="#fff"/><use xlink:href="#M" transform="matrix(14 0 0 -14 31.399 183.764)" fill="#fff"/><use xlink:href="#D" transform="matrix(14 0 0 -14 38.787 183.6)" fill="#fff"/><use xlink:href="#M" transform="matrix(14 0 0 -14 46.913 183.764)" fill="#fff"/><use xlink:href="#E" transform="matrix(14 0 0 -14 55.231 183.6)" fill="#fff"/><use xlink:href="#ar" transform="matrix(14 0 0 -14 62.543 183.77)" fill="#fff"/><path d="M277.92 164.258h27.36v27.36h-27.36z" fill="#70ad47"/><path stroke-width="1.524" stroke-miterlimit="8" fill="none" stroke="#548235" d="M277.92 164.258h27.36v27.36h-27.36z"/><use xlink:href="#as" transform="matrix(18 0 0 -17.64706 285.676 184.891)" fill="#fff"/><use xlink:href="#as" stroke-width=".112" stroke-miterlimit="10" transform="matrix(18 0 0 -17.64706 285.676 184.891)" fill="none" stroke="#fff"/><path d="M308.86 164.258h27.36v27.36h-27.36z" fill="#70ad47"/><path stroke-width="1.524" stroke-miterlimit="8" fill="none" stroke="#548235" d="M308.86 164.258h27.36v27.36h-27.36z"/><use xlink:href="#as" transform="matrix(18 0 0 -17.64706 316.616 184.891)" fill="#fff"/><use xlink:href="#as" stroke-width=".112" stroke-miterlimit="10" transform="matrix(18 0 0 -17.64706 316.616 184.891)" fill="none" stroke="#fff"/><path d="M216 164.258h27.36v27.36H216z" fill="#70ad47"/><path stroke-width="1.524" stroke-miterlimit="8" fill="none" stroke="#548235" d="M216 164.258h27.36v27.36H216z"/><use xlink:href="#as" transform="matrix(18 0 0 -17.64706 223.756 184.891)" fill="#fff"/><use xlink:href="#as" stroke-width=".112" stroke-miterlimit="10" transform="matrix(18 0 0 -17.64706 223.756 184.891)" fill="none" stroke="#fff"/><path d="M246.96 164.258h27.36v27.36h-27.36z" fill="#70ad47"/><path stroke-width="1.524" stroke-miterlimit="8" fill="none" stroke="#548235" d="M246.96 164.258h27.36v27.36h-27.36z"/><use xlink:href="#as" transform="matrix(18 0 0 -17.64706 254.716 184.891)" fill="#fff"/><use xlink:href="#as" stroke-width=".112" stroke-miterlimit="10" transform="matrix(18 0 0 -17.64706 254.716 184.891)" fill="none" stroke="#fff"/><path d="M154.08 164.258h27.36v27.36h-27.36z" fill="#70ad47"/><path stroke-width="1.524" stroke-miterlimit="8" fill="none" stroke="#548235" d="M154.08 164.258h27.36v27.36h-27.36z"/><use xlink:href="#as" transform="matrix(18 0 0 -17.64706 161.836 184.891)" fill="#fff"/><use xlink:href="#as" stroke-width=".112" stroke-miterlimit="10" transform="matrix(18 0 0 -17.64706 161.836 184.891)" fill="none" stroke="#fff"/><path d="M185.04 164.258h27.36v27.36h-27.36z" fill="#70ad47"/><path stroke-width="1.524" stroke-miterlimit="8" fill="none" stroke="#548235" d="M185.04 164.258h27.36v27.36h-27.36z"/><use xlink:href="#as" transform="matrix(18 0 0 -17.64706 192.796 184.891)" fill="#fff"/><use xlink:href="#as" stroke-width=".112" stroke-miterlimit="10" transform="matrix(18 0 0 -17.64706 192.796 184.891)" fill="none" stroke="#fff"/><path d="M92.16 164.448h27.36v27.36H92.16z" fill="#70ad47"/><path stroke-width="1.524" stroke-miterlimit="8" fill="none" stroke="#548235" d="M92.16 164.448h27.36v27.36H92.16z"/><use xlink:href="#as" transform="matrix(18 0 0 -17.64706 99.916 185.131)" fill="#fff"/><use xlink:href="#as" stroke-width=".112" stroke-miterlimit="10" transform="matrix(18 0 0 -17.64706 99.916 185.131)" fill="none" stroke="#fff"/><path d="M123.12 164.258h27.36v27.36h-27.36z" fill="#70ad47"/><path stroke-width="1.524" stroke-miterlimit="8" fill="none" stroke="#548235" d="M123.12 164.258h27.36v27.36h-27.36z"/><use xlink:href="#as" transform="matrix(18 0 0 -17.64706 130.876 184.891)" fill="#fff"/><use xlink:href="#as" stroke-width=".112" stroke-miterlimit="10" transform="matrix(18 0 0 -17.64706 130.876 184.891)" fill="none" stroke="#fff"/><path d="M3.6 195.218h84.96v27.36H3.6z" fill="#44546a"/><path stroke-width="1.524" stroke-miterlimit="8" fill="none" stroke="#44546a" d="M3.6 195.218h84.96v27.36H3.6z"/><use xlink:href="#aq" transform="matrix(14 0 0 -14 23.528 214.56)" fill="#fff"/><use xlink:href="#M" transform="matrix(14 0 0 -14 31.399 214.724)" fill="#fff"/><use xlink:href="#D" transform="matrix(14 0 0 -14 38.787 214.56)" fill="#fff"/><use xlink:href="#M" transform="matrix(14 0 0 -14 46.913 214.724)" fill="#fff"/><use xlink:href="#E" transform="matrix(14 0 0 -14 55.231 214.56)" fill="#fff"/><use xlink:href="#at" transform="matrix(14 0 0 -14 63.062 214.56)" fill="#fff"/><path d="M154.08 195.218h27.36v27.36h-27.36z" fill="#e7e6e6"/><path stroke-width="1.524" stroke-dasharray="1.524,1.524" stroke-miterlimit="8" fill="none" stroke="#afabab" d="M154.08 195.218h27.36v27.36h-27.36z"/><path d="M185.04 195.218h27.36v27.36h-27.36z" fill="#e7e6e6"/><path stroke-width="1.524" stroke-dasharray="1.524,1.524" stroke-miterlimit="8" fill="none" stroke="#afabab" d="M185.04 195.218h27.36v27.36h-27.36z"/><path d="M92.16 195.408h27.36v27.36H92.16z" fill="#c00000"/><path stroke-width="1.524" stroke-miterlimit="8" fill="none" stroke="#843c0c" d="M92.16 195.408h27.36v27.36H92.16z"/><use xlink:href="#av" transform="matrix(18 0 0 -17.64706 100.557 217.96)" fill="#fff"/><use xlink:href="#av" stroke-width=".112" stroke-miterlimit="10" transform="matrix(18 0 0 -17.64706 100.557 217.96)" fill="none" stroke="#fff"/><path d="M123.12 195.218h27.36v27.36h-27.36z" fill="#e7e6e6"/><path stroke-width="1.524" stroke-dasharray="1.524,1.524" stroke-miterlimit="8" fill="none" stroke="#afabab" d="M123.12 195.218h27.36v27.36h-27.36z"/><path d="M3.6 226.178h84.96v27.36H3.6z" fill="#44546a"/><path stroke-width="1.524" stroke-miterlimit="8" fill="none" stroke="#44546a" d="M3.6 226.178h84.96v27.36H3.6z"/><use xlink:href="#aq" transform="matrix(14 0 0 -14 23.528 245.52)" fill="#fff"/><use xlink:href="#M" transform="matrix(14 0 0 -14 31.399 245.684)" fill="#fff"/><use xlink:href="#D" transform="matrix(14 0 0 -14 38.787 245.52)" fill="#fff"/><use xlink:href="#M" transform="matrix(14 0 0 -14 46.913 245.684)" fill="#fff"/><use xlink:href="#E" transform="matrix(14 0 0 -14 55.231 245.52)" fill="#fff"/><use xlink:href="#G" transform="matrix(14 0 0 -14 62.304 245.52)" fill="#fff"/><path d="M154.08 226.178h27.36v27.36h-27.36z" fill="#e7e6e6"/><path stroke-width="1.524" stroke-dasharray="1.524,1.524" stroke-miterlimit="8" fill="none" stroke="#afabab" d="M154.08 226.178h27.36v27.36h-27.36z"/><path d="M185.04 226.178h27.36v27.36h-27.36z" fill="#e7e6e6"/><path stroke-width="1.524" stroke-dasharray="1.524,1.524" stroke-miterlimit="8" fill="none" stroke="#afabab" d="M185.04 226.178h27.36v27.36h-27.36z"/><path d="M92.16 226.368h27.36v27.36H92.16z" fill="#e7e6e6"/><path stroke-width="1.524" stroke-dasharray="1.524,1.524" stroke-miterlimit="8" fill="none" stroke="#afabab" d="M92.16 226.368h27.36v27.36H92.16z"/><path d="M123.12 226.178h27.36v27.36h-27.36z" fill="#e7e6e6"/><path stroke-width="1.524" stroke-dasharray="1.524,1.524" stroke-miterlimit="8" fill="none" stroke="#afabab" d="M123.12 226.178h27.36v27.36h-27.36z"/><path d="M3.6 257.138h84.96v27.36H3.6z" fill="#44546a"/><path stroke-width="1.524" stroke-miterlimit="8" fill="none" stroke="#44546a" d="M3.6 257.138h84.96v27.36H3.6z"/><use xlink:href="#aq" transform="matrix(14 0 0 -14 23.528 276.48)" fill="#fff"/><use xlink:href="#M" transform="matrix(14 0 0 -14 31.399 276.644)" fill="#fff"/><use xlink:href="#D" transform="matrix(14 0 0 -14 38.787 276.48)" fill="#fff"/><use xlink:href="#M" transform="matrix(14 0 0 -14 46.913 276.644)" fill="#fff"/><use xlink:href="#E" transform="matrix(14 0 0 -14 55.231 276.48)" fill="#fff"/><use xlink:href="#au" transform="matrix(14 0 0 -14 62.481 276.65)" fill="#fff"/><path d="M154.08 257.138h27.36v27.36h-27.36z" fill="#e7e6e6"/><path stroke-width="1.524" stroke-dasharray="1.524,1.524" stroke-miterlimit="8" fill="none" stroke="#afabab" d="M154.08 257.138h27.36v27.36h-27.36z"/><path d="M185.04 257.138h27.36v27.36h-27.36z" fill="#e7e6e6"/><path stroke-width="1.524" stroke-dasharray="1.524,1.524" stroke-miterlimit="8" fill="none" stroke="#afabab" d="M185.04 257.138h27.36v27.36h-27.36z"/><path d="M92.16 257.328h27.36v27.36H92.16z" fill="#e7e6e6"/><path stroke-width="1.524" stroke-dasharray="1.524,1.524" stroke-miterlimit="8" fill="none" stroke="#afabab" d="M92.16 257.328h27.36v27.36H92.16z"/><path d="M123.12 257.138h27.36v27.36h-27.36z" fill="#e7e6e6"/><path stroke-width="1.524" stroke-dasharray="1.524,1.524" stroke-miterlimit="8" fill="none" stroke="#afabab" d="M123.12 257.138h27.36v27.36h-27.36z"/><path d="M648 298.898h27.36v27.36H648z" fill="#e7e6e6"/><path stroke-width="1.524" stroke-dasharray="1.524,1.524" stroke-miterlimit="8" fill="none" stroke="#afabab" d="M648 298.898h27.36v27.36H648z"/><symbol id="aw"><path d="M.236 0v.631H0v.085h.567V.63H.331V0H.236z"/></symbol><symbol id="ax"><path d="M.384.179.475.167a.222.222 0 0 0-.08-.123A.24.24 0 0 0 .248 0a.238.238 0 0 0-.18.07A.275.275 0 0 0 0 .267C0 .354.022.422.067.47a.228.228 0 0 0 .175.072c.07 0 .126-.024.17-.07a.281.281 0 0 0 .066-.2.82.82 0 0 0 0-.023H.09A.2.2 0 0 1 .139.118.144.144 0 0 1 .248.072c.032 0 .06.009.082.026.023.017.04.044.054.08M.096.322h.29a.176.176 0 0 1-.034.098.135.135 0 0 1-.109.05.14.14 0 0 1-.102-.04.161.161 0 0 1-.045-.108z"/></symbol><symbol id="ay"><path d="M0 .167.087.18A.122.122 0 0 1 .127.1.143.143 0 0 1 .221.072c.04 0 .07.008.09.025.02.016.03.036.03.058C.34.175.33.19.313.202a.381.381 0 0 1-.09.03.854.854 0 0 0-.134.041.134.134 0 0 0-.056.05.133.133 0 0 0-.02.07c0 .023.006.044.016.064.011.02.026.036.044.049.013.01.032.018.055.025A.298.298 0 0 0 .312.524.145.145 0 0 0 .382.477a.184.184 0 0 0 .03-.08L.325.384a.094.094 0 0 1-.034.062.123.123 0 0 1-.08.023C.172.47.144.463.126.45.108.436.1.42.1.403.1.39.103.38.11.373A.078.078 0 0 1 .144.348C.153.345.179.338.222.326.284.31.327.296.352.286A.13.13 0 0 0 .41.238.148.148 0 0 0 .405.081.166.166 0 0 0 .33.021.272.272 0 0 0 .221 0a.245.245 0 0 0-.154.042A.196.196 0 0 0 0 .167z"/></symbol><symbol id="az"><path d="M.24.085.253.008A.326.326 0 0 0 .187 0a.15.15 0 0 0-.075.015.085.085 0 0 0-.037.04.317.317 0 0 0-.01.104v.298H0v.068h.064v.129l.088.053V.525H.24V.457H.152V.154c0-.025.001-.041.004-.049A.038.038 0 0 1 .171.088a.06.06 0 0 1 .03-.006l.04.003z"/></symbol><use xlink:href="#aw" transform="matrix(15 0 0 -15 682.912 318.48)" fill="#404040"/><use xlink:href="#ax" transform="matrix(15 0 0 -15 690.569 318.656)" fill="#404040"/><use xlink:href="#ay" transform="matrix(15 0 0 -15 698.855 318.656)" fill="#404040"/><use xlink:href="#az" transform="matrix(15 0 0 -15 706.158 318.583)" fill="#404040"/><symbol id="aA"><path d="M.365.202.452.19A.225.225 0 0 0 .379.05.21.21 0 0 0 .236 0a.224.224 0 0 0-.172.07C.021.115 0 .181 0 .268c0 .056.01.105.028.147A.193.193 0 0 0 .112.51c.038.021.08.032.124.032A.214.214 0 0 0 .375.499.195.195 0 0 0 .443.378L.358.365a.141.141 0 0 1-.044.078A.11.11 0 0 1 .24.47.136.136 0 0 1 .132.422C.104.39.09.34.09.272c0-.07.014-.12.04-.152A.13.13 0 0 1 .235.072c.034 0 .063.01.086.032a.158.158 0 0 1 .044.098z"/></symbol><symbol id="aB"><path d="M.368.076A.27.27 0 0 0 .178 0C.12 0 .075.014.045.042A.139.139 0 0 0 0 .148a.142.142 0 0 0 .063.12c.018.013.04.023.063.03A.628.628 0 0 0 .204.31a.803.803 0 0 1 .157.03v.023C.361.4.353.424.336.439.314.46.281.47.236.47.195.47.164.462.145.447.125.433.11.407.1.371L.015.382a.21.21 0 0 0 .039.09c.018.022.043.04.077.051A.342.342 0 0 0 .25.542c.044 0 .08-.005.108-.016a.141.141 0 0 0 .061-.04.136.136 0 0 0 .027-.059.495.495 0 0 0 .005-.08V.228C.45.147.45.096.455.074A.2.2 0 0 1 .478.012H.386a.186.186 0 0 0-.018.064M.361.272A.645.645 0 0 0 .217.239.332.332 0 0 1 .141.22a.076.076 0 0 1-.047-.07C.094.127.103.108.12.092.138.077.164.07.198.07s.064.007.09.022a.138.138 0 0 1 .059.06c.01.02.014.05.014.089v.032z"/></symbol><use xlink:href="#aA" transform="matrix(15 0 0 -15 714.731 318.656)" fill="#404040"/><use xlink:href="#aB" transform="matrix(15 0 0 -15 722.187 318.656)" fill="#404040"/><use xlink:href="#ay" transform="matrix(15 0 0 -15 730.481 318.656)" fill="#404040"/><use xlink:href="#ax" transform="matrix(15 0 0 -15 738.069 318.656)" fill="#404040"/><symbol id="aC"><path d="M0 0v.716h.088V.308l.208.21H.41L.21.327.43 0H.32L.15.265.088.205V0H0z"/></symbol><symbol id="aD"><path d="M0 .615v.1h.088v-.1H0M0 0v.519h.088V0H0z"/></symbol><symbol id="aE"><path d="M0 0v.717h.08V.65C.1.676.12.696.144.709c.024.013.053.02.086.02A.205.205 0 0 0 .348.695.21.21 0 0 0 .424.598.35.35 0 0 0 .45.462C.45.409.44.36.421.318A.215.215 0 0 0 .224.187a.167.167 0 0 0-.079.019.18.18 0 0 0-.057.046V0H0m.08.455C.08.388.093.34.12.307A.124.124 0 0 1 .218.26c.04 0 .073.017.1.05C.346.342.36.393.36.462.36.528.347.578.32.611a.122.122 0 0 1-.098.05C.185.66.152.642.122.606.095.573.08.522.08.455z"/></symbol><symbol id="aF"><path d="M.368.012v.065A.161.161 0 0 0 .223 0 .205.205 0 0 0 .11.034a.227.227 0 0 0-.08.095A.334.334 0 0 0 0 .271c0 .051.009.098.026.14a.204.204 0 0 0 .193.131.171.171 0 0 0 .143-.071v.257H.45V.012H.368M.09.27C.09.204.104.154.132.12a.127.127 0 0 1 .1-.049c.038 0 .07.016.097.047.027.032.04.08.04.144C.37.334.357.386.33.42a.126.126 0 0 1-.2.002C.103.39.09.34.09.271z"/></symbol><use xlink:href="#ay" transform="matrix(15 0 0 -15 750.481 318.656)" fill="#404040"/><use xlink:href="#aC" transform="matrix(15 0 0 -15 758.516 318.48)" fill="#404040"/><use xlink:href="#aD" transform="matrix(15 0 0 -15 766.016 318.48)" fill="#404040"/><use xlink:href="#aE" transform="matrix(15 0 0 -15 769.384 321.461)" fill="#404040"/><use xlink:href="#aE" transform="matrix(15 0 0 -15 777.758 321.461)" fill="#404040"/><use xlink:href="#ax" transform="matrix(15 0 0 -15 785.693 318.656)" fill="#404040"/><use xlink:href="#aF" transform="matrix(15 0 0 -15 794.031 318.656)" fill="#404040"/><path d="M216 298.898h27.36v27.36H216z" fill="#70ad47"/><path stroke-width="1.524" stroke-miterlimit="8" fill="none" stroke="#548235" d="M216 298.898h27.36v27.36H216z"/><use xlink:href="#as" transform="matrix(18 0 0 -17.64706 223.756 319.531)" fill="#fff"/><use xlink:href="#as" stroke-width=".112" stroke-miterlimit="10" transform="matrix(18 0 0 -17.64706 223.756 319.531)" fill="none" stroke="#fff"/><use xlink:href="#aw" transform="matrix(15 0 0 -15 251.272 318.48)" fill="#404040"/><use xlink:href="#ax" transform="matrix(15 0 0 -15 258.929 318.656)" fill="#404040"/><use xlink:href="#ay" transform="matrix(15 0 0 -15 267.216 318.656)" fill="#404040"/><use xlink:href="#az" transform="matrix(15 0 0 -15 274.518 318.583)" fill="#404040"/><use xlink:href="#aA" transform="matrix(15 0 0 -15 283.091 318.656)" fill="#404040"/><use xlink:href="#aB" transform="matrix(15 0 0 -15 290.547 318.656)" fill="#404040"/><use xlink:href="#ay" transform="matrix(15 0 0 -15 298.841 318.656)" fill="#404040"/><use xlink:href="#ax" transform="matrix(15 0 0 -15 306.429 318.656)" fill="#404040"/><use xlink:href="#aE" transform="matrix(15 0 0 -15 319.369 321.461)" fill="#404040"/><use xlink:href="#aB" transform="matrix(15 0 0 -15 327.297 318.656)" fill="#404040"/><use xlink:href="#ay" transform="matrix(15 0 0 -15 335.59 318.656)" fill="#404040"/><use xlink:href="#ay" transform="matrix(15 0 0 -15 343.09 318.656)" fill="#404040"/><use xlink:href="#ax" transform="matrix(15 0 0 -15 350.678 318.656)" fill="#404040"/><use xlink:href="#aF" transform="matrix(15 0 0 -15 359.016 318.656)" fill="#404040"/><path d="M432 298.898h27.36v27.36H432z" fill="#c00000"/><path stroke-width="1.524" stroke-miterlimit="8" fill="none" stroke="#843c0c" d="M432 298.898h27.36v27.36H432z"/><use xlink:href="#av" transform="matrix(18 0 0 -17.64706 440.397 321.4)" fill="#fff"/><use xlink:href="#av" stroke-width=".112" stroke-miterlimit="10" transform="matrix(18 0 0 -17.64706 440.397 321.4)" fill="none" stroke="#fff"/><symbol id="aG"><path d="M0 0v.519h.079V.446A.183.183 0 0 0 .236.53.17.17 0 0 0 .33.506.128.128 0 0 0 .382.44C.423.5.477.53.542.53.594.53.633.516.662.487.688.46.701.415.701.356V0H.616v.327c0 .035-.003.06-.009.075a.072.072 0 0 1-.03.038.122.122 0 0 1-.144-.022C.408.392.396.354.396.3V0H.308v.337c0 .039-.007.068-.021.088-.015.02-.038.03-.07.03a.129.129 0 0 1-.07-.02.111.111 0 0 1-.045-.058A.322.322 0 0 1 .088.27V0H0z"/></symbol><use xlink:href="#aw" transform="matrix(15 0 0 -15 467.332 318.72)" fill="#404040"/><use xlink:href="#aD" transform="matrix(15 0 0 -15 476.546 318.72)" fill="#404040"/><use xlink:href="#aG" transform="matrix(15 0 0 -15 479.918 318.72)" fill="#404040"/><use xlink:href="#ax" transform="matrix(15 0 0 -15 491.978 318.896)" fill="#404040"/><symbol id="aH"><path d="M0 0v.716h.088V0H0z"/></symbol><use xlink:href="#aH" transform="matrix(15 0 0 -15 504.884 318.72)" fill="#404040"/><use xlink:href="#aD" transform="matrix(15 0 0 -15 508.296 318.72)" fill="#404040"/><use xlink:href="#aG" transform="matrix(15 0 0 -15 511.664 318.72)" fill="#404040"/><use xlink:href="#aD" transform="matrix(15 0 0 -15 524.166 318.72)" fill="#404040"/><use xlink:href="#az" transform="matrix(15 0 0 -15 526.809 318.822)" fill="#404040"/><symbol id="aI"><path d="m0 0 .19.27-.176.249h.11l.08-.122A1.51 1.51 0 0 0 .24.339l.04.057.087.123h.105L.292.274.485 0H.377L.271.161.243.205.106 0H0z"/></symbol><use xlink:href="#ax" transform="matrix(15 0 0 -15 535.35 318.896)" fill="#404040"/><use xlink:href="#aI" transform="matrix(15 0 0 -15 543.284 318.72)" fill="#404040"/><use xlink:href="#aA" transform="matrix(15 0 0 -15 551.26 318.896)" fill="#404040"/><use xlink:href="#ax" transform="matrix(15 0 0 -15 558.724 318.896)" fill="#404040"/><use xlink:href="#ax" transform="matrix(15 0 0 -15 567.098 318.896)" fill="#404040"/><use xlink:href="#aF" transform="matrix(15 0 0 -15 575.436 318.896)" fill="#404040"/><use xlink:href="#ax" transform="matrix(15 0 0 -15 583.847 318.896)" fill="#404040"/><use xlink:href="#aF" transform="matrix(15 0 0 -15 592.185 318.896)" fill="#404040"/><path stroke-width="2.286" stroke-miterlimit="8" fill="none" stroke="#44546a" d="M216 195.12c3.778 0 6.84.51 6.84 1.14v42.314c0 .63 3.062 1.14 6.84 1.14-3.778 0-6.84.51-6.84 1.14v42.314c0 .63-3.062 1.14-6.84 1.14"/><path d="M239.79 239.668h89.26v27.36h-89.26z" fill="#fff"/><path stroke-width="1.524" stroke-miterlimit="8" fill="none" stroke="#44546a" d="M239.79 239.668h89.26v27.36h-89.26z"/><symbol id="aJ"><path d="M.362.188.448.179A.26.26 0 0 0 .363.058.234.234 0 0 0 .204 0a.218.218 0 0 0-.106.026.178.178 0 0 0-.073.078A.26.26 0 0 0 0 .22a.37.37 0 0 0 .04.164.28.28 0 0 0 .101.119.25.25 0 0 0 .135.039c.062 0 .112-.02.148-.058A.217.217 0 0 0 .48.327.464.464 0 0 0 .473.25H.091A.216.216 0 0 1 .09.222C.09.173.1.136.123.11A.106.106 0 0 1 .205.072c.03 0 .06.01.089.03.03.02.052.049.068.086M.105.316h.291l.001.02C.397.38.386.414.364.437a.112.112 0 0 1-.086.036.158.158 0 0 1-.103-.039.235.235 0 0 1-.07-.118z"/></symbol><use xlink:href="#aJ" transform="matrix(15 0 0 -15 258.446 258.416)" fill="#404040"/><symbol id="aK"><path d="m.129.616.02.1h.089l-.021-.1H.129M0 0l.108.519h.089L.088 0H0z"/></symbol><symbol id="aL"><path d="m.03.145.021.1h.1L.135.157A.235.235 0 0 0 .082.042.13.13 0 0 0 0 0l.008.039c.039.01.065.046.077.106H.03z"/></symbol><symbol id="aM"><path d="m.28.823.02.1h.088l-.02-.1H.28M0 .013l.016.075A.206.206 0 0 1 .069.08c.02 0 .034.006.046.019a.281.281 0 0 1 .034.104l.11.523h.088L.234.186A.377.377 0 0 0 .186.05.12.12 0 0 0 .084 0 .346.346 0 0 0 0 .013z"/></symbol><use xlink:href="#aK" transform="matrix(10 0 0 -10 266.343 261.36)" fill="#404040"/><use xlink:href="#aL" transform="matrix(10 0 0 -10 268.534 262.805)" fill="#404040"/><use xlink:href="#aM" transform="matrix(10 0 0 -10 269.834 263.435)" fill="#404040"/><symbol id="aN"><path d="M.473.217H0V.3h.473V.217m0-.217H0v.082h.473V0z"/></symbol><use xlink:href="#aN" transform="matrix(15 0 0 -15 278.255 255.186)" fill="#404040"/><symbol id="aO"><path d="M0 .365C0 .45.009.518.026.57a.257.257 0 0 0 .078.12.2.2 0 0 0 .13.042.21.21 0 0 0 .1-.023A.19.19 0 0 0 .406.64.355.355 0 0 0 .451.534.704.704 0 0 0 .467.365.66.66 0 0 0 .44.162a.255.255 0 0 0-.078-.12A.198.198 0 0 0 .233 0a.196.196 0 0 0-.162.074C.024.134 0 .231 0 .365m.09 0C.09.248.104.17.131.13.16.092.193.072.233.072c.04 0 .075.02.102.059.028.039.041.117.041.234C.376.483.363.561.335.6.308.64.273.658.232.658A.113.113 0 0 1 .136.607C.106.563.09.483.09.365z"/></symbol><symbol id="aP"><path d="M0 0v.1h.1V0H0z"/></symbol><use xlink:href="#aO" transform="matrix(15 0 0 -15 290.918 258.423)" fill="#404040"/><use xlink:href="#aP" transform="matrix(15 0 0 -15 300.032 258.24)" fill="#404040"/><use xlink:href="#aO" transform="matrix(15 0 0 -15 303.422 258.423)" fill="#404040"/><path d="M239.79 212.308h89.26v27.36h-89.26z" fill="#44546a"/><path stroke-width="1.524" stroke-miterlimit="8" fill="none" stroke="#44546a" d="M239.79 212.308h89.26v27.36h-89.26z"/><symbol id="aQ"><path d="m0 .246.14.013A.172.172 0 0 1 .193.155.157.157 0 0 1 .297.122c.046 0 .081.01.105.03.024.02.035.042.035.069a.064.064 0 0 1-.015.043.116.116 0 0 1-.051.03 1.779 1.779 0 0 1-.116.032.393.393 0 0 0-.163.071.186.186 0 0 0-.035.246c.02.032.05.056.089.073A.36.36 0 0 0 .287.74C.377.74.444.72.49.68A.208.208 0 0 0 .562.525L.417.518C.411.554.397.58.377.597S.327.62.286.62A.165.165 0 0 1 .187.595.052.052 0 0 1 .164.551c0-.017.007-.032.022-.044A.38.38 0 0 1 .318.46.685.685 0 0 0 .474.408.197.197 0 0 0 .582.22a.21.21 0 0 0-.13-.195A.409.409 0 0 0 .294 0a.31.31 0 0 0-.208.063A.274.274 0 0 0 0 .245z"/></symbol><use xlink:href="#aQ" transform="matrix(14 0 0 -14 265.488 231.778)" fill="#fff"/><use xlink:href="#N" transform="matrix(14 0 0 -14 274.938 231.764)" fill="#fff"/><use xlink:href="#Q" transform="matrix(14 0 0 -14 282.668 231.764)" fill="#fff"/><use xlink:href="#L" transform="matrix(14 0 0 -14 291.523 231.6)" fill="#fff"/><use xlink:href="#M" transform="matrix(14 0 0 -14 296.54 231.764)" fill="#fff"/><path stroke-width="2.286" stroke-miterlimit="8" fill="none" stroke="#44546a" d="M555.84 195.12c3.778 0 6.84.51 6.84 1.14v42.314c0 .63 3.062 1.14 6.84 1.14-3.778 0-6.84.51-6.84 1.14v42.314c0 .63-3.062 1.14-6.84 1.14"/><path d="M579.63 239.668h89.26v27.36h-89.26z" fill="#fff"/><path stroke-width="1.524" stroke-miterlimit="8" fill="none" stroke="#44546a" d="M579.63 239.668h89.26v27.36h-89.26z"/><use xlink:href="#aJ" transform="matrix(15 0 0 -15 598.286 258.416)" fill="#404040"/><use xlink:href="#aK" transform="matrix(10 0 0 -10 606.183 261.36)" fill="#404040"/><use xlink:href="#aL" transform="matrix(10 0 0 -10 608.374 262.805)" fill="#404040"/><use xlink:href="#aM" transform="matrix(10 0 0 -10 609.674 263.435)" fill="#404040"/><use xlink:href="#aN" transform="matrix(15 0 0 -15 618.095 255.186)" fill="#404040"/><symbol id="aR"><path d="m0 .202.088.011A.196.196 0 0 1 .139.105.129.129 0 0 1 .228.073c.041 0 .076.014.105.043a.145.145 0 0 1 .042.106.136.136 0 0 1-.14.14.252.252 0 0 1-.062-.01l.01.077.014-.001c.038 0 .071.01.101.029.03.02.045.05.045.09 0 .033-.01.06-.032.08A.116.116 0 0 1 .226.66.12.12 0 0 1 .141.627.162.162 0 0 1 .097.53L.009.546c.01.059.035.104.073.137A.211.211 0 0 0 .224.73C.264.731.3.723.332.706a.179.179 0 0 0 .102-.16C.434.513.425.485.409.46A.17.17 0 0 0 .335.4.166.166 0 0 0 .434.338.184.184 0 0 0 .469.224.212.212 0 0 0 .4.064.24.24 0 0 0 .228 0 .218.218 0 0 0 0 .202z"/></symbol><use xlink:href="#aO" transform="matrix(15 0 0 -15 630.757 258.423)" fill="#404040"/><use xlink:href="#aP" transform="matrix(15 0 0 -15 639.872 258.24)" fill="#404040"/><use xlink:href="#aR" transform="matrix(15 0 0 -15 643.269 258.43)" fill="#404040"/><path d="M579.945 212.308h89.26v27.36h-89.26z" fill="#44546a"/><path stroke-width="1.524" stroke-miterlimit="8" fill="none" stroke="#44546a" d="M579.945 212.308h89.26v27.36h-89.26z"/><use xlink:href="#aQ" transform="matrix(14 0 0 -14 605.643 231.778)" fill="#fff"/><use xlink:href="#N" transform="matrix(14 0 0 -14 615.093 231.764)" fill="#fff"/><use xlink:href="#Q" transform="matrix(14 0 0 -14 622.823 231.764)" fill="#fff"/><use xlink:href="#L" transform="matrix(14 0 0 -14 631.678 231.6)" fill="#fff"/><use xlink:href="#M" transform="matrix(14 0 0 -14 636.695 231.764)" fill="#fff"/><path stroke-width="2.286" stroke-miterlimit="8" fill="none" stroke="#44546a" d="M895.68 195.12c3.778 0 6.84.51 6.84 1.14v42.314c0 .63 3.062 1.14 6.84 1.14-3.778 0-6.84.51-6.84 1.14v42.314c0 .63-3.062 1.14-6.84 1.14"/><path d="M919.47 239.668h89.26v27.36h-89.26z" fill="#fff"/><path stroke-width="1.524" stroke-miterlimit="8" fill="none" stroke="#44546a" d="M919.47 239.668h89.26v27.36h-89.26z"/><use xlink:href="#aJ" transform="matrix(15 0 0 -15 938.126 258.416)" fill="#404040"/><use xlink:href="#aK" transform="matrix(10 0 0 -10 946.023 261.36)" fill="#404040"/><use xlink:href="#aL" transform="matrix(10 0 0 -10 948.214 262.805)" fill="#404040"/><use xlink:href="#aM" transform="matrix(10 0 0 -10 949.514 263.435)" fill="#404040"/><use xlink:href="#aN" transform="matrix(15 0 0 -15 957.935 255.186)" fill="#404040"/><symbol id="aS"><path d="M.264 0H.176v.56A.582.582 0 0 0 0 .454V.54a.53.53 0 0 1 .129.084.33.33 0 0 1 .078.096h.057V0z"/></symbol><use xlink:href="#aS" transform="matrix(15 0 0 -15 971.608 258.24)" fill="#404040"/><use xlink:href="#aP" transform="matrix(15 0 0 -15 979.712 258.24)" fill="#404040"/><use xlink:href="#aO" transform="matrix(15 0 0 -15 983.101 258.423)" fill="#404040"/><path d="M919.785 212.308h89.26v27.36h-89.26z" fill="#44546a"/><path stroke-width="1.524" stroke-miterlimit="8" fill="none" stroke="#44546a" d="M919.785 212.308h89.26v27.36h-89.26z"/><use xlink:href="#aQ" transform="matrix(14 0 0 -14 945.483 231.778)" fill="#fff"/><use xlink:href="#N" transform="matrix(14 0 0 -14 954.933 231.764)" fill="#fff"/><use xlink:href="#Q" transform="matrix(14 0 0 -14 962.663 231.764)" fill="#fff"/><use xlink:href="#L" transform="matrix(14 0 0 -14 971.518 231.6)" fill="#fff"/><use xlink:href="#M" transform="matrix(14 0 0 -14 976.535 231.764)" fill="#fff"/></svg>